<?xml version="1.0" encoding="utf-8"?>
<!-- Generator: Adobe Illustrator 28.1.0, SVG Export Plug-In . SVG Version: 6.00 Build 0)  -->
<svg version="1.1" id="Ebene_1" xmlns="http://www.w3.org/2000/svg" xmlns:xlink="http://www.w3.org/1999/xlink" x="0px" y="0px"
	 viewBox="0 0 24 24" style="enable-background:new 0 0 24 24;" xml:space="preserve">
<style type="text/css">
	.st0{clip-path:url(#SVGID_00000124152590555759781670000000250509207255982009_);}
	.st1{fill:#FFFFFF;}
	.st2{fill:#D16B86;}
	.st3{clip-path:url(#SVGID_00000170273512930774692740000003357042491736933274_);}
	.st4{fill:#F5DEB3;}
</style>
<g>
	<g>
		<defs>
			<rect id="SVGID_1_" x="4.5" y="5.7" width="13.6" height="11.7"/>
		</defs>
		<clipPath id="SVGID_00000052807289595068865210000015384779411953589163_">
			<use xlink:href="#SVGID_1_"  style="overflow:visible;"/>
		</clipPath>
		<g style="clip-path:url(#SVGID_00000052807289595068865210000015384779411953589163_);">
			<path class="st1" d="M16.8,17.4h-11c-0.7,0-1.3-0.6-1.3-1.3V6.9c0-0.7,0.6-1.3,1.3-1.3h11c0.7,0,1.3,0.6,1.3,1.3
				c0,0.2-0.2,0.4-0.4,0.4c-0.2,0-0.4-0.2-0.4-0.4c0-0.3-0.2-0.5-0.5-0.5h-11c-0.3,0-0.5,0.2-0.5,0.5v9.2c0,0.3,0.2,0.5,0.5,0.5h11
				c0.3,0,0.5-0.2,0.5-0.5v-4.9c0-0.2,0.2-0.4,0.4-0.4c0.2,0,0.4,0.2,0.4,0.4v4.9C18,16.9,17.5,17.4,16.8,17.4z"/>
			<path class="st2" d="M4.8,6.9v1.9h12.8V6.9c0-0.5-0.4-0.9-0.9-0.9h-11C5.2,6,4.8,6.4,4.8,6.9z"/>
			<path class="st1" d="M17.7,9.2H4.8C4.6,9.2,4.5,9,4.5,8.8V6.9c0-0.7,0.6-1.3,1.3-1.3h11c0.7,0,1.3,0.6,1.3,1.3v1.9
				C18,9,17.9,9.2,17.7,9.2z M5.2,8.4h12.1V6.9c0-0.3-0.2-0.5-0.5-0.5h-11c-0.3,0-0.5,0.2-0.5,0.5L5.2,8.4L5.2,8.4z"/>
			<path class="st1" d="M12.3,7.8h-0.7c-0.2,0-0.4-0.2-0.4-0.4c0-0.2,0.2-0.4,0.4-0.4h0.7c0.2,0,0.4,0.2,0.4,0.4
				C12.7,7.6,12.5,7.8,12.3,7.8z M14.2,7.8h-0.7c-0.2,0-0.4-0.2-0.4-0.4c0-0.2,0.2-0.4,0.4-0.4h0.7c0.2,0,0.4,0.2,0.4,0.4
				C14.6,7.6,14.4,7.8,14.2,7.8z M16.2,7.8h-0.7c-0.2,0-0.4-0.2-0.4-0.4c0-0.2,0.2-0.4,0.4-0.4h0.7c0.2,0,0.4,0.2,0.4,0.4
				C16.5,7.6,16.4,7.8,16.2,7.8z"/>
			<path class="st2" d="M7.5,12.8h7.6v1.7H7.5V12.8z"/>
			<path class="st1" d="M15.1,14.9H7.5c-0.2,0-0.4-0.2-0.4-0.4v-1.7c0-0.2,0.2-0.4,0.4-0.4h7.6c0.2,0,0.4,0.2,0.4,0.4v1.7
				C15.4,14.7,15.3,14.9,15.1,14.9z M7.8,14.1h6.9v-1H7.8V14.1L7.8,14.1z M14,11.6H8.6c-0.2,0-0.4-0.2-0.4-0.4s0.2-0.4,0.4-0.4H14
				c0.2,0,0.4,0.2,0.4,0.4C14.3,11.4,14.2,11.6,14,11.6L14,11.6z"/>
		</g>
	</g>
</g>
<g>
	<g>
		<defs>
			<polygon id="SVGID_00000096760911378327129740000015742559651910581126_" points="0.5,3 24.5,3 24.1,23.5 0.1,23.5 			"/>
		</defs>
		<clipPath id="SVGID_00000088101724362588064650000013790974586412934042_">
			<use xlink:href="#SVGID_00000096760911378327129740000015742559651910581126_"  style="overflow:visible;"/>
		</clipPath>
		<g style="clip-path:url(#SVGID_00000088101724362588064650000013790974586412934042_);">
			<path class="st4" d="M9.3,19.8h6.3v2.8H9.3V19.8z"/>
			<path class="st1" d="M21.4,3H2.8C1.5,3,0.5,4.1,0.5,5.4v12.4c0,1.3,1.1,2.4,2.4,2.4h5.5v1.4H7c-0.4,0-0.7,0.3-0.7,0.7
				S6.6,23,7,23h10.2c0.4,0,0.7-0.3,0.7-0.7s-0.3-0.7-0.7-0.7h-1.3v-2c0-0.1,0-0.1,0-0.2c0-0.4-0.3-0.7-0.7-0.7H2.8
				c-0.6,0-1-0.5-1-1.1V5.4c0-0.6,0.5-1.1,1-1.1h18.6c0.6,0,1,0.5,1,1.1v12.4c0,0.6-0.5,1.1-1,1.1h-2.1c-0.4,0-0.7,0.3-0.6,0.7
				c0,0.4,0.3,0.7,0.7,0.7h2.1c1.3,0,2.4-1.1,2.4-2.4V5.4C23.8,4.1,22.7,3,21.4,3z M14.6,20.3v1.4h-5v-1.4H14.6L14.6,20.3z"/>
		</g>
	</g>
</g>
</svg>
