<?xml version="1.0" encoding="utf-8"?>
<!-- Generator: Adobe Illustrator 28.1.0, SVG Export Plug-In . SVG Version: 6.00 Build 0)  -->
<svg version="1.1" id="Ebene_1" xmlns="http://www.w3.org/2000/svg" xmlns:xlink="http://www.w3.org/1999/xlink" x="0px" y="0px"
	 viewBox="0 0 24 24" style="enable-background:new 0 0 24 24;" xml:space="preserve">
<style type="text/css">
	.st0{clip-path:url(#SVGID_00000152232437659566024770000005844916761601679501_);}
	.st1{fill:#F25784;}
	.st2{fill:#FFFFFF;}
	.st3{fill:#D3BACA;}
	.st4{fill:#D4B6C7;}
	.st5{fill:#D5B2C5;}
	.st6{fill:#D7AFC2;}
	.st7{fill:#D8ABBF;}
	.st8{fill:#D9A7BD;}
	.st9{fill:#DAA3BA;}
	.st10{fill:#DB9FB7;}
	.st11{fill:#DD9CB4;}
	.st12{fill:#DE98B2;}
	.st13{fill:#DF94AF;}
	.st14{fill:#E090AC;}
	.st15{fill:#E18CAA;}
	.st16{fill:#E389A7;}
	.st17{fill:#E485A4;}
	.st18{fill:#E581A2;}
	.st19{fill:#E67D9F;}
	.st20{fill:#E7799C;}
	.st21{fill:#E8759A;}
	.st22{fill:#EA7297;}
	.st23{fill:#EB6E94;}
	.st24{fill:#EC6A91;}
	.st25{fill:#ED668F;}
	.st26{fill:#EE628C;}
	.st27{fill:#F05F89;}
	.st28{fill:#F15B87;}
	.st29{fill:#F5DEB3;}
</style>
<g>
	<g>
		<defs>
			<rect id="SVGID_1_" x="0.1" y="2.5" width="24" height="20"/>
		</defs>
		<clipPath id="SVGID_00000039127178714859671270000015899805878144349099_">
			<use xlink:href="#SVGID_1_"  style="overflow:visible;"/>
		</clipPath>
		<g style="clip-path:url(#SVGID_00000039127178714859671270000015899805878144349099_);">
			<path class="st1" d="M8.9,19h6.5v2.8H8.9V19z"/>
			<path class="st2" d="M21.7,2.5H2.6c-1.3,0-2.4,1.1-2.4,2.4v12.4c0,1.3,1.1,2.4,2.4,2.4h5.7v1.4H6.9c-0.4,0-0.7,0.3-0.7,0.7
				s0.3,0.7,0.7,0.7h10.5c0.4,0,0.7-0.3,0.7-0.7s-0.3-0.7-0.7-0.7h-1.3v-2c0-0.1,0-0.1,0-0.2c0-0.4-0.3-0.7-0.7-0.7H2.6
				c-0.6,0-1.1-0.5-1.1-1.1V4.9c0-0.6,0.5-1.1,1.1-1.1h19.1c0.6,0,1.1,0.5,1.1,1.1v12.4c0,0.6-0.5,1.1-1.1,1.1h-2.2
				c-0.4,0-0.7,0.3-0.7,0.7c0,0.4,0.3,0.7,0.7,0.7h2.2c1.3,0,2.4-1.1,2.4-2.4V4.9C24.1,3.6,23.1,2.5,21.7,2.5z M14.7,19.7v1.4H9.6
				v-1.4H14.7L14.7,19.7z"/>
		</g>
	</g>
</g>
<g>
	<g>
		<path class="st3" d="M9.8,11L9.3,8.7L8.9,11H9.8z M14.3,15.7c0,0.3-0.1,0.4-0.4,0.4H11c-0.3,0-0.5-0.3-0.6-0.9
			c0-0.4-0.1-0.8-0.1-1.2h-2c-0.1,0.4-0.1,0.7-0.2,1.1c-0.1,0.5-0.3,0.8-0.6,0.8H4.6c-0.1,0-0.2,0-0.3-0.1s-0.1-0.2-0.1-0.3v-0.1
			L6.6,5c0-0.2,0.2-0.3,0.4-0.3h4.5c0.2,0,0.4,0.1,0.4,0.3L14.3,15.7L14.3,15.7z"/>
		<path class="st3" d="M18.4,5.2l-0.2,10.2c0,0.3-0.1,0.4-0.4,0.4h-2.5c-0.1,0-0.2,0-0.3-0.1s-0.1-0.2-0.1-0.3L15,5.2
			c0-0.3,0.1-0.4,0.4-0.4H18C18.3,4.8,18.4,4.9,18.4,5.2z"/>
	</g>
	<g>
		<path class="st4" d="M9.8,11L9.4,8.8L8.9,11H9.8z M14.4,15.8c0,0.3-0.1,0.4-0.4,0.4h-2.9c-0.3,0-0.5-0.3-0.6-0.9
			c-0.1-0.4-0.1-0.8-0.1-1.2h-2c-0.1,0.4-0.1,0.7-0.2,1.1C8.1,15.7,7.9,16,7.6,16H4.7c-0.1,0-0.2,0-0.3-0.1
			c-0.1-0.1-0.1-0.2-0.1-0.3v-0.1L6.7,5c0-0.2,0.2-0.3,0.4-0.3h4.5C11.8,4.7,12,4.8,12,5L14.4,15.8C14.4,15.7,14.4,15.7,14.4,15.8z"
			/>
		<path class="st4" d="M18.4,5.3l-0.2,10.2c0,0.3-0.1,0.4-0.4,0.4h-2.5c-0.1,0-0.2,0-0.3-0.1s-0.1-0.2-0.1-0.3L15,5.2
			c0-0.3,0.1-0.4,0.4-0.4H18C18.3,4.8,18.4,5,18.4,5.3z"/>
	</g>
	<g>
		<path class="st5" d="M9.9,11.1L9.4,8.8L9,11.1H9.9z M14.4,15.8c0,0.3-0.1,0.4-0.4,0.4h-2.9c-0.3,0-0.5-0.3-0.6-0.9
			c-0.1-0.4-0.1-0.8-0.1-1.2h-2c-0.1,0.4-0.1,0.7-0.2,1.1C8.1,15.7,7.9,16,7.6,16H4.7c-0.1,0-0.2,0-0.3-0.1
			c-0.1-0.1-0.1-0.2-0.1-0.3v-0.1L6.7,5.1c0-0.2,0.2-0.3,0.4-0.3h4.5c0.2,0,0.4,0.1,0.4,0.3L14.4,15.8L14.4,15.8z"/>
		<path class="st5" d="M18.5,5.3l-0.2,10.2c0,0.3-0.1,0.4-0.4,0.4h-2.5c-0.1,0-0.2,0-0.3-0.1C15,15.7,15,15.6,15,15.5l0.1-10.3
			c0-0.3,0.1-0.4,0.4-0.4h2.6C18.4,4.9,18.5,5,18.5,5.3z"/>
	</g>
	<g>
		<path class="st6" d="M9.9,11.1L9.5,8.9L9,11.1H9.9z M14.5,15.8c0,0.3-0.1,0.4-0.4,0.4h-2.9c-0.3,0-0.5-0.3-0.6-0.9
			c-0.1-0.4-0.1-0.8-0.1-1.2h-2c-0.1,0.4-0.1,0.7-0.2,1.1C8.2,15.7,8,16,7.7,16H4.8c-0.1,0-0.2,0-0.3-0.1s-0.1-0.2-0.1-0.3v-0.1
			L6.8,5.1c0-0.2,0.2-0.3,0.4-0.3h4.5c0.2,0,0.4,0.1,0.4,0.3L14.5,15.8L14.5,15.8z"/>
		<path class="st6" d="M18.5,5.3l-0.2,10.2c0,0.3-0.1,0.4-0.4,0.4h-2.5c-0.1,0-0.2,0-0.3-0.1S15,15.6,15,15.5l0.1-10.3
			c0-0.3,0.1-0.4,0.4-0.4h2.6C18.4,4.9,18.6,5.1,18.5,5.3z"/>
	</g>
	<g>
		<path class="st7" d="M10,11.2L9.6,8.9l-0.5,2.3H10z M14.5,15.9c0,0.3-0.1,0.4-0.4,0.4h-2.9c-0.3,0-0.5-0.3-0.6-0.9
			c-0.1-0.4-0.1-0.8-0.1-1.2h-2c-0.1,0.4-0.1,0.7-0.2,1.1C8.2,15.8,8,16,7.8,16H4.9c-0.1,0-0.2,0-0.3-0.1c-0.1-0.1-0.1-0.2-0.1-0.3
			v-0.1L6.8,5.1c0-0.2,0.2-0.3,0.4-0.3h4.5c0.2,0,0.4,0.1,0.4,0.3L14.5,15.9C14.5,15.8,14.5,15.9,14.5,15.9z"/>
		<path class="st7" d="M18.6,5.4l-0.2,10.2c0,0.3-0.1,0.4-0.4,0.4h-2.5c-0.1,0-0.2,0-0.3-0.1s-0.1-0.2-0.1-0.3l0.1-10.3
			c0-0.3,0.1-0.4,0.4-0.4h2.6C18.5,5,18.6,5.1,18.6,5.4z"/>
	</g>
	<g>
		<path class="st8" d="M10,11.2L9.6,8.9l-0.5,2.3H10z M14.6,15.9c0,0.3-0.1,0.4-0.4,0.4h-2.9c-0.3,0-0.5-0.3-0.6-0.9
			c-0.1-0.4-0.1-0.8-0.1-1.2h-2c-0.1,0.4-0.1,0.7-0.2,1.1c-0.1,0.5-0.3,0.8-0.6,0.8H4.9c-0.1,0-0.2,0-0.3-0.1
			c-0.1-0.1-0.1-0.2-0.1-0.3v-0.1L6.9,5.2c0-0.2,0.2-0.3,0.4-0.3h4.5c0.2,0,0.4,0.1,0.4,0.3L14.6,15.9L14.6,15.9z"/>
		<path class="st8" d="M18.7,5.4l-0.2,10.2c0,0.3-0.1,0.4-0.4,0.4h-2.5c-0.1,0-0.2,0-0.3-0.1s-0.1-0.2-0.1-0.3l0.1-10.3
			c0-0.3,0.1-0.4,0.4-0.4h2.6C18.5,5,18.7,5.1,18.7,5.4z"/>
	</g>
	<g>
		<path class="st9" d="M10.1,11.3L9.7,9l-0.5,2.3H10.1z M14.6,16c0,0.3-0.1,0.4-0.4,0.4h-2.9c-0.3,0-0.5-0.3-0.6-0.9
			c-0.1-0.4-0.1-0.8-0.1-1.2h-2c-0.1,0.4-0.1,0.7-0.2,1.1c-0.1,0.5-0.3,0.8-0.6,0.8H5c-0.1,0-0.2,0-0.3-0.1
			c-0.1-0.1-0.1-0.2-0.1-0.3v-0.1L6.9,5.2C7,5,7.1,4.9,7.3,4.9h4.5c0.2,0,0.4,0.1,0.4,0.3L14.6,16C14.6,15.9,14.6,15.9,14.6,16z"/>
		<path class="st9" d="M18.7,5.5l-0.2,10.2c0,0.3-0.1,0.4-0.4,0.4h-2.5c-0.1,0-0.2,0-0.3-0.1c-0.1-0.1-0.1-0.2-0.1-0.3l0.1-10.3
			c0-0.3,0.1-0.4,0.4-0.4h2.6C18.6,5,18.7,5.2,18.7,5.5z"/>
	</g>
	<g>
		<path class="st10" d="M10.1,11.3L9.7,9l-0.5,2.3H10.1z M14.7,16c0,0.3-0.1,0.4-0.4,0.4h-2.9c-0.3,0-0.5-0.3-0.6-0.9
			c-0.1-0.4-0.1-0.8-0.1-1.2h-2c-0.1,0.4-0.1,0.7-0.2,1.1c-0.1,0.5-0.3,0.8-0.6,0.8H5c-0.1,0-0.2,0-0.3-0.1
			c-0.1-0.1-0.1-0.2-0.1-0.3v-0.1L7,5.3C7,5.1,7.2,5,7.4,5h4.5c0.2,0,0.4,0.1,0.4,0.3L14.7,16L14.7,16z"/>
		<path class="st10" d="M18.8,5.5l-0.2,10.2c0,0.3-0.1,0.4-0.4,0.4h-2.5c-0.1,0-0.2,0-0.3-0.1c-0.1-0.1-0.1-0.2-0.1-0.3l0.1-10.3
			c0-0.3,0.1-0.4,0.4-0.4h2.6C18.6,5.1,18.8,5.2,18.8,5.5z"/>
	</g>
	<g>
		<path class="st11" d="M10.2,11.3L9.8,9.1l-0.5,2.3h0.9V11.3z M14.7,16.1c0,0.3-0.1,0.4-0.4,0.4h-2.9c-0.3,0-0.5-0.3-0.6-0.9
			c-0.1-0.4-0.1-0.8-0.1-1.2h-2c-0.1,0.4-0.1,0.7-0.2,1.1c-0.1,0.5-0.3,0.8-0.6,0.8H5.1c-0.1,0-0.2,0-0.3-0.1
			c-0.1-0.1-0.1-0.2-0.1-0.3v-0.1L7,5.3C7.1,5.1,7.2,5,7.5,5H12c0.2,0,0.4,0.1,0.4,0.3L14.7,16.1C14.7,16,14.7,16,14.7,16.1z"/>
		<path class="st11" d="M18.8,5.6l-0.2,10.2c0,0.3-0.1,0.4-0.4,0.4h-2.5c-0.1,0-0.2,0-0.3-0.1c-0.1-0.1-0.1-0.2-0.1-0.3l0.1-10.3
			c0-0.3,0.1-0.4,0.4-0.4h2.6C18.7,5.1,18.8,5.3,18.8,5.6z"/>
	</g>
	<g>
		<path class="st12" d="M10.2,11.4L9.8,9.1l-0.5,2.3C9.3,11.4,10.2,11.4,10.2,11.4z M14.8,16.1c0,0.3-0.1,0.4-0.4,0.4h-2.9
			c-0.3,0-0.5-0.3-0.6-0.9c-0.1-0.4-0.1-0.8-0.1-1.2h-2c-0.1,0.4-0.1,0.7-0.2,1.1C8.5,16,8.3,16.2,8,16.2H5.1c-0.1,0-0.2,0-0.3-0.1
			c-0.1-0.1-0.1-0.2-0.1-0.3v-0.1L7.1,5.4C7.1,5.1,7.3,5,7.5,5H12c0.2,0,0.4,0.1,0.4,0.3L14.8,16.1L14.8,16.1z"/>
		<path class="st12" d="M18.9,5.6l-0.2,10.2c0,0.3-0.1,0.4-0.4,0.4h-2.5c-0.1,0-0.2,0-0.3-0.1c-0.1-0.1-0.1-0.2-0.1-0.3l0.1-10.3
			c0-0.3,0.1-0.4,0.4-0.4h2.6C18.7,5.2,18.9,5.3,18.9,5.6z"/>
	</g>
	<g>
		<path class="st13" d="M10.3,11.4L9.9,9.2l-0.5,2.3h0.9V11.4z M14.8,16.1c0,0.3-0.1,0.4-0.4,0.4h-2.9c-0.3,0-0.5-0.3-0.6-0.9
			c-0.1-0.4-0.1-0.8-0.1-1.2h-2c-0.1,0.4-0.1,0.7-0.2,1.1C8.5,16,8.3,16.3,8,16.3H5.2c-0.1,0-0.2,0-0.3-0.1
			c-0.1-0.1-0.1-0.2-0.1-0.3v-0.1L7.1,5.4c0-0.2,0.2-0.3,0.4-0.3H12c0.2,0,0.4,0.1,0.4,0.3L14.8,16.1L14.8,16.1z"/>
		<path class="st13" d="M18.9,5.6l-0.2,10.2c0,0.3-0.1,0.4-0.4,0.4h-2.5c-0.1,0-0.2,0-0.3-0.1c-0.1-0.1-0.1-0.2-0.1-0.3l0.1-10.3
			c0-0.3,0.1-0.4,0.4-0.4h2.6C18.8,5.2,18.9,5.4,18.9,5.6z"/>
	</g>
	<g>
		<path class="st14" d="M10.3,11.5L9.9,9.2l-0.5,2.3H10.3z M14.9,16.2c0,0.3-0.1,0.4-0.4,0.4h-2.9c-0.3,0-0.5-0.3-0.6-0.9
			c-0.1-0.4-0.1-0.8-0.1-1.2h-2c-0.1,0.4-0.1,0.7-0.2,1.1c-0.1,0.5-0.3,0.8-0.6,0.8H5.2c-0.1,0-0.2,0-0.3-0.1
			c-0.1-0.1-0.1-0.2-0.1-0.3v-0.1L7.2,5.4c0-0.2,0.2-0.3,0.4-0.3h4.5c0.2,0,0.4,0.1,0.4,0.3L14.9,16.2
			C14.9,16.1,14.9,16.2,14.9,16.2z"/>
		<path class="st14" d="M19,5.7l-0.2,10.2c0,0.3-0.1,0.4-0.4,0.4h-2.5c-0.1,0-0.2,0-0.3-0.1s-0.1-0.2-0.1-0.3l0.1-10.3
			c0-0.3,0.1-0.4,0.4-0.4h2.6C18.9,5.3,19,5.4,19,5.7z"/>
	</g>
	<g>
		<path class="st15" d="M10.4,11.5L10,9.2l-0.5,2.3H10.4z M14.9,16.2c0,0.3-0.1,0.4-0.4,0.4h-2.9c-0.3,0-0.5-0.3-0.6-0.9
			c-0.1-0.4-0.1-0.8-0.1-1.2h-2c-0.1,0.4-0.1,0.7-0.2,1.1c-0.1,0.5-0.3,0.8-0.6,0.8H5.3c-0.1,0-0.2,0-0.3-0.1
			c-0.1-0.1-0.1-0.2-0.1-0.3v-0.1L7.3,5.5c0-0.2,0.2-0.3,0.4-0.3h4.5c0.2,0,0.4,0.1,0.4,0.3L14.9,16.2L14.9,16.2z"/>
		<path class="st15" d="M19,5.7l-0.2,10.2c0,0.3-0.1,0.4-0.4,0.4h-2.5c-0.1,0-0.2,0-0.3-0.1s-0.1-0.2-0.1-0.3l0.1-10.3
			c0-0.3,0.1-0.4,0.4-0.4h2.6C18.9,5.3,19,5.4,19,5.7z"/>
	</g>
	<g>
		<path class="st16" d="M10.5,11.6L10,9.3l-0.5,2.3H10.5z M15,16.3c0,0.3-0.1,0.4-0.4,0.4h-2.9c-0.3,0-0.5-0.3-0.6-0.9
			C11,15.4,11,15,11,14.6H9c-0.1,0.4-0.1,0.7-0.2,1.1c-0.1,0.5-0.3,0.8-0.6,0.8H5.3c-0.1,0-0.2,0-0.3-0.1S4.9,16.1,4.9,16v-0.1
			L7.3,5.5c0-0.2,0.2-0.3,0.4-0.3h4.5c0.2,0,0.4,0.1,0.4,0.3L15,16.3C15,16.2,15,16.2,15,16.3z"/>
		<path class="st16" d="M19.1,5.8L18.9,16c0,0.3-0.1,0.4-0.4,0.4H16c-0.1,0-0.2,0-0.3-0.1s-0.1-0.2-0.1-0.3l0.1-10.3
			c0-0.3,0.1-0.4,0.4-0.4h2.6C19,5.3,19.1,5.5,19.1,5.8z"/>
	</g>
	<g>
		<path class="st17" d="M10.5,11.6l-0.4-2.3l-0.5,2.3H10.5z M15.1,16.3c0,0.3-0.1,0.4-0.4,0.4h-2.9c-0.3,0-0.5-0.3-0.6-0.9
			c-0.1-0.4-0.1-0.8-0.1-1.2H9c-0.1,0.4-0.1,0.7-0.2,1.1c-0.1,0.5-0.3,0.8-0.6,0.8H5.4c-0.1,0-0.2,0-0.3-0.1S5,16.1,5,16l0,0
			L7.4,5.6c0-0.2,0.2-0.3,0.4-0.3h4.5c0.2,0,0.4,0.1,0.4,0.3L15.1,16.3L15.1,16.3z"/>
		<path class="st17" d="M19.1,5.8L18.9,16c0,0.3-0.1,0.4-0.4,0.4H16c-0.1,0-0.2,0-0.3-0.1s-0.1-0.2-0.1-0.3l0.1-10.3
			c0-0.3,0.1-0.4,0.4-0.4h2.6C19,5.4,19.1,5.5,19.1,5.8z"/>
	</g>
	<g>
		<path class="st18" d="M10.6,11.6l-0.4-2.3l-0.5,2.3H10.6z M15.1,16.4c0,0.3-0.1,0.4-0.4,0.4h-2.9c-0.3,0-0.5-0.3-0.6-0.9
			c-0.1-0.4-0.1-0.8-0.1-1.2h-2c-0.1,0.2-0.1,0.6-0.2,1c-0.1,0.5-0.3,0.8-0.6,0.8H5.4c-0.1,0-0.2,0-0.3-0.1c0-0.1-0.1-0.2-0.1-0.3
			C5,16,5,16,5,16L7.4,5.6c0-0.2,0.2-0.3,0.4-0.3h4.5c0.2,0,0.4,0.1,0.4,0.3L15.1,16.4C15.1,16.3,15.1,16.3,15.1,16.4z"/>
		<path class="st18" d="M19.2,5.9L19,16c0,0.3-0.1,0.4-0.4,0.4h-2.5c-0.1,0-0.2,0-0.3-0.1s-0.1-0.2-0.1-0.3l0.1-10.3
			c0-0.3,0.1-0.4,0.4-0.4h2.6C19.1,5.4,19.2,5.6,19.2,5.9z"/>
	</g>
	<g>
		<path class="st19" d="M10.6,11.7l-0.4-2.3l-0.5,2.3H10.6z M15.2,16.4c0,0.3-0.1,0.4-0.4,0.4h-2.9c-0.3,0-0.5-0.3-0.6-0.9
			c-0.1-0.4-0.1-0.8-0.1-1.2h-2C9.1,15,9,15.4,9,15.7c-0.1,0.5-0.3,0.8-0.6,0.8H5.5c-0.1,0-0.2,0-0.3-0.1s-0.1-0.2-0.1-0.3V16
			L7.5,5.7c0-0.2,0.2-0.3,0.4-0.3h4.5c0.2,0,0.4,0.1,0.4,0.3L15.2,16.4L15.2,16.4z"/>
		<path class="st19" d="M19.2,5.9L19,16.1c0,0.3-0.1,0.4-0.4,0.4h-2.5c-0.1,0-0.2,0-0.3-0.1s-0.1-0.2-0.1-0.3l0.1-10.3
			c0-0.3,0.1-0.4,0.4-0.4h2.6C19.1,5.5,19.3,5.6,19.2,5.9z"/>
	</g>
	<g>
		<path class="st20" d="M10.7,11.7l-0.4-2.3l-0.5,2.3H10.7z M15.2,16.4c0,0.3-0.1,0.4-0.4,0.4h-2.9c-0.3,0-0.5-0.3-0.6-0.9
			c-0.1-0.4-0.1-0.8-0.1-1.2h-2C9.1,15,9.1,15.4,9,15.8c-0.1,0.5-0.3,0.8-0.6,0.8H5.6c-0.1,0-0.2,0-0.3-0.1s-0.1-0.2-0.1-0.3v-0.1
			L7.5,5.7c0-0.2,0.2-0.3,0.4-0.3h4.5c0.2,0,0.4,0.1,0.4,0.3L15.2,16.4L15.2,16.4z"/>
		<path class="st20" d="M19.3,5.9l-0.2,10.2c0,0.3-0.1,0.4-0.4,0.4h-2.5c-0.1,0-0.2,0-0.3-0.1s-0.1-0.2-0.1-0.3l0.1-10.3
			c0-0.3,0.1-0.4,0.4-0.4h2.6C19.2,5.5,19.3,5.7,19.3,5.9z"/>
	</g>
	<g>
		<path class="st21" d="M10.7,11.8l-0.4-2.3l-0.5,2.3H10.7z M15.3,16.5c0,0.3-0.1,0.4-0.4,0.4H12c-0.3,0-0.5-0.3-0.6-0.9
			c-0.1-0.4-0.1-0.8-0.1-1.2h-2c-0.1,0.4-0.1,0.7-0.2,1.1c-0.1,0.5-0.3,0.8-0.6,0.8H5.6c-0.1,0-0.2,0-0.3-0.1
			c-0.1-0.1-0.1-0.2-0.1-0.3v-0.1L7.6,5.7c0-0.2,0.2-0.3,0.4-0.3h4.5c0.2,0,0.4,0.1,0.4,0.3L15.3,16.5
			C15.3,16.4,15.3,16.5,15.3,16.5z"/>
		<path class="st21" d="M19.4,6l-0.2,10.2c0,0.3-0.1,0.4-0.4,0.4h-2.5c-0.1,0-0.2,0-0.3-0.1c-0.1-0.1-0.1-0.2-0.1-0.3L16,5.9
			c0-0.3,0.1-0.4,0.4-0.4H19C19.2,5.6,19.4,5.7,19.4,6z"/>
	</g>
	<g>
		<path class="st22" d="M10.8,11.8l-0.4-2.3l-0.5,2.3H10.8z M15.3,16.5c0,0.3-0.1,0.4-0.4,0.4H12c-0.3,0-0.5-0.3-0.6-0.9
			c-0.1-0.4-0.1-0.8-0.1-1.2h-2c-0.1,0.4-0.1,0.7-0.2,1.1c-0.1,0.5-0.3,0.8-0.6,0.8H5.7c-0.1,0-0.2,0-0.3-0.1s-0.1-0.2-0.1-0.3v-0.1
			L7.6,5.8c0-0.2,0.2-0.3,0.4-0.3h4.5c0.2,0,0.4,0.1,0.4,0.3L15.3,16.5L15.3,16.5z"/>
		<path class="st22" d="M19.4,6l-0.2,10.2c0,0.3-0.1,0.4-0.4,0.4h-2.5c-0.1,0-0.2,0-0.3-0.1c-0.1-0.1-0.1-0.2-0.1-0.3L16,6
			c0-0.3,0.1-0.4,0.4-0.4H19C19.3,5.6,19.4,5.7,19.4,6z"/>
	</g>
	<g>
		<path class="st23" d="M10.8,11.9l-0.4-2.3l-0.5,2.3H10.8z M15.4,16.6c0,0.3-0.1,0.4-0.4,0.4h-2.9c-0.3,0-0.5-0.3-0.6-0.9
			c-0.1-0.4-0.1-0.8-0.1-1.2h-2c-0.1,0.4-0.1,0.7-0.2,1.1c-0.1,0.5-0.3,0.8-0.6,0.8H5.7c-0.1,0-0.2,0-0.3-0.1s-0.1-0.2-0.1-0.3v-0.1
			L7.7,5.8c0-0.2,0.2-0.3,0.4-0.3h4.5c0.2,0,0.4,0.1,0.4,0.3L15.4,16.6C15.4,16.5,15.4,16.5,15.4,16.6z"/>
		<path class="st23" d="M19.5,6.1l-0.2,10.2c0,0.3-0.1,0.4-0.4,0.4h-2.5c-0.1,0-0.2,0-0.3-0.1C16,16.5,16,16.4,16,16.3L16.1,6
			c0-0.3,0.1-0.4,0.4-0.4h2.6C19.3,5.6,19.5,5.8,19.5,6.1z"/>
	</g>
	<g>
		<path class="st24" d="M10.9,11.9l-0.4-2.3L10,11.9H10.9z M15.4,16.6c0,0.3-0.1,0.4-0.4,0.4h-2.9c-0.3,0-0.5-0.3-0.6-0.9
			c-0.1-0.4-0.1-0.8-0.1-1.2h-2c-0.1,0.4-0.1,0.7-0.2,1.1c-0.1,0.5-0.3,0.8-0.6,0.8H5.8c-0.1,0-0.2,0-0.3-0.1
			c-0.1-0.1-0.1-0.2-0.1-0.3v-0.1L7.7,5.9c0-0.2,0.2-0.3,0.4-0.3h4.5c0.2,0,0.4,0.1,0.4,0.3L15.4,16.6L15.4,16.6z"/>
		<path class="st24" d="M19.5,6.1l-0.2,10.2c0,0.3-0.1,0.4-0.4,0.4h-2.5c-0.1,0-0.2,0-0.3-0.1C16,16.5,16,16.4,16,16.3L16.1,6
			c0-0.3,0.1-0.4,0.4-0.4h2.6C19.4,5.7,19.5,5.8,19.5,6.1z"/>
	</g>
	<g>
		<path class="st25" d="M10.9,11.9l-0.4-2.3L10,11.9H10.9z M15.5,16.7c0,0.3-0.1,0.4-0.4,0.4h-2.9c-0.3,0-0.5-0.3-0.6-0.9
			c-0.1-0.4-0.1-0.8-0.1-1.2h-2c-0.1,0.4-0.1,0.7-0.2,1.1c-0.1,0.5-0.3,0.8-0.6,0.8H5.8c-0.1,0-0.2,0-0.3-0.1s-0.1-0.2-0.1-0.3v-0.1
			L7.8,5.9c0-0.2,0.2-0.3,0.4-0.3h4.5c0.2,0,0.4,0.1,0.4,0.3L15.5,16.7C15.5,16.6,15.5,16.6,15.5,16.7z"/>
		<path class="st25" d="M19.6,6.2l-0.2,10.2c0,0.3-0.1,0.4-0.4,0.4h-2.5c-0.1,0-0.2,0-0.3-0.1s-0.1-0.2-0.1-0.3l0.1-10.3
			c0-0.3,0.1-0.4,0.4-0.4h2.6C19.5,5.7,19.6,5.9,19.6,6.2z"/>
	</g>
	<g>
		<path class="st26" d="M11,12l-0.4-2.3L10.1,12H11z M15.5,16.7c0,0.3-0.1,0.4-0.4,0.4h-2.9c-0.3,0-0.5-0.3-0.6-0.9
			c-0.1-0.4-0.1-0.8-0.1-1.2h-2c-0.1,0.4-0.1,0.7-0.2,1.1c-0.1,0.5-0.3,0.8-0.6,0.8H5.9c-0.1,0-0.2,0-0.3-0.1s-0.1-0.2-0.1-0.3v-0.1
			L7.9,6c0-0.2,0.2-0.3,0.4-0.3h4.5c0.2,0,0.4,0.1,0.4,0.3L15.5,16.7L15.5,16.7z"/>
		<path class="st26" d="M19.6,6.2l-0.2,10.2c0,0.3-0.1,0.4-0.4,0.4h-2.5c-0.1,0-0.2,0-0.3-0.1c-0.1-0.1-0.1-0.2-0.1-0.3l0.1-10.3
			c0-0.3,0.1-0.4,0.4-0.4h2.6C19.5,5.8,19.6,5.9,19.6,6.2z"/>
	</g>
	<g>
		<path class="st27" d="M11,12l-0.4-2.3L10.2,12H11z M15.6,16.7c0,0.3-0.1,0.4-0.4,0.4h-2.9c-0.3,0-0.5-0.3-0.6-0.9
			c-0.1-0.4-0.1-0.8-0.1-1.2h-2c-0.1,0.4-0.1,0.7-0.2,1.1c-0.1,0.5-0.3,0.8-0.6,0.8H5.9c-0.1,0-0.2,0-0.3-0.1
			c-0.1-0.1-0.1-0.2-0.1-0.3v-0.1L7.9,6c0-0.2,0.2-0.3,0.4-0.3h4.5c0.2,0,0.4,0.1,0.4,0.3L15.6,16.7L15.6,16.7z"/>
		<path class="st27" d="M19.7,6.2l-0.2,10.2c0,0.3-0.1,0.4-0.4,0.4h-2.5c-0.1,0-0.2,0-0.3-0.1s-0.1-0.2-0.1-0.3l0.1-10.3
			c0-0.3,0.1-0.4,0.4-0.4h2.6C19.6,5.8,19.7,6,19.7,6.2z"/>
	</g>
	<g>
		<path class="st28" d="M11.1,12.1l-0.4-2.3l-0.5,2.3H11.1z M15.7,16.8c0,0.3-0.1,0.4-0.4,0.4h-2.9c-0.3,0-0.5-0.3-0.6-0.9
			c-0.1-0.4-0.1-0.8-0.1-1.2h-2c-0.1,0.4-0.1,0.7-0.2,1.1C9.4,16.7,9.2,17,8.9,17H6c-0.1,0-0.2,0-0.3-0.1s-0.1-0.2-0.1-0.3v-0.1L8,6
			c0-0.2,0.2-0.3,0.4-0.3h4.5c0.2,0,0.4,0.1,0.4,0.3L15.7,16.8C15.7,16.7,15.7,16.8,15.7,16.8z"/>
		<path class="st28" d="M19.7,6.3l-0.2,10.2c0,0.3-0.1,0.4-0.4,0.4h-2.5c-0.1,0-0.2,0-0.3-0.1c-0.1-0.1-0.1-0.2-0.1-0.3l0.1-10.3
			c0-0.3,0.1-0.4,0.4-0.4h2.6C19.6,5.9,19.7,6,19.7,6.3z"/>
	</g>
	<g>
		<path class="st1" d="M11.2,12.1l-0.4-2.3l-0.5,2.3H11.2z M15.7,16.8c0,0.3-0.1,0.4-0.4,0.4h-2.9c-0.3,0-0.5-0.3-0.6-0.9
			c0-0.4-0.1-0.8-0.1-1.2h-2c-0.1,0.4-0.1,0.7-0.2,1.1C9.4,16.7,9.2,17,8.9,17H6c-0.1,0-0.2,0-0.3-0.1s-0.1-0.2-0.1-0.3v-0.1L8,6.1
			c0-0.2,0.2-0.3,0.4-0.3H13c0.2,0,0.4,0.1,0.4,0.3L15.7,16.8L15.7,16.8z"/>
		<path class="st1" d="M19.8,6.3l-0.2,10.2c0,0.3-0.1,0.4-0.4,0.4h-2.5c-0.1,0-0.2,0-0.3-0.1s-0.1-0.2-0.1-0.3l0.1-10.3
			c0-0.3,0.1-0.4,0.4-0.4h2.6C19.7,5.9,19.8,6,19.8,6.3z"/>
	</g>
</g>
<g>
	<path class="st29" d="M15.7,16.7c0,0.3-0.1,0.4-0.4,0.4h-2.9c-0.3,0-0.5-0.3-0.6-0.9c0-0.4-0.1-0.8-0.1-1.2h-2
		c-0.1,0.4-0.1,0.7-0.2,1.1c-0.1,0.5-0.3,0.8-0.6,0.8H6c-0.1,0-0.2,0-0.3-0.1c-0.1-0.1-0.1-0.2-0.1-0.3v-0.1L8,6
		c0-0.2,0.2-0.3,0.4-0.3H13c0.2,0,0.4,0.1,0.4,0.3L15.7,16.7L15.7,16.7z M11.2,12l-0.4-2.3L10.3,12H11.2z"/>
	<path class="st29" d="M19.8,6.2l-0.2,10.2c0,0.3-0.1,0.4-0.4,0.4h-2.5c-0.1,0-0.2,0-0.3-0.1s-0.1-0.2-0.1-0.3l0.1-10.3
		c0-0.3,0.1-0.4,0.4-0.4h2.6C19.7,5.8,19.8,5.9,19.8,6.2z"/>
</g>
</svg>
