<?xml version="1.0" encoding="utf-8"?>
<!-- Generator: Adobe Illustrator 28.1.0, SVG Export Plug-In . SVG Version: 6.00 Build 0)  -->
<svg version="1.1" id="Ebene_1" xmlns="http://www.w3.org/2000/svg" xmlns:xlink="http://www.w3.org/1999/xlink" x="0px" y="0px"
	 viewBox="0 0 24 24" style="enable-background:new 0 0 24 24;" xml:space="preserve">
<style type="text/css">
	.st0{fill:none;stroke:#F5DEB3;stroke-width:2.500000e-02;stroke-miterlimit:10;}
	.st1{clip-path:url(#SVGID_00000023982128955701312610000010046542641731172001_);}
	.st2{fill:#F5DEB3;}
	.st3{fill:#FFFFFF;}
	.st4{fill:none;}
	.st5{fill:none;stroke:#F5DEB3;stroke-width:0.15;stroke-miterlimit:10;}
	.st6{font-family:'Celestella-Regular';}
	.st7{font-size:12px;}
	.st8{enable-background:new    ;}
	.st9{fill:#D16B86;}
</style>
<line class="st0" x1="2.9" y1="7.7" x2="21" y2="7.7"/>
<g>
	<g>
		<g>
			<defs>
				<rect id="SVGID_1_" x="0.1" y="2.5" width="24" height="20"/>
			</defs>
			<clipPath id="SVGID_00000029726732160769778710000018040211036047966100_">
				<use xlink:href="#SVGID_1_"  style="overflow:visible;"/>
			</clipPath>
			<g style="clip-path:url(#SVGID_00000029726732160769778710000018040211036047966100_);">
				<path class="st2" d="M8.9,19h6.5v2.8H8.9V19z"/>
				<path class="st3" d="M21.7,2.5H2.6c-1.3,0-2.4,1.1-2.4,2.4v12.4c0,1.3,1.1,2.4,2.4,2.4h5.7v1.4H6.9c-0.4,0-0.7,0.3-0.7,0.7
					s0.3,0.7,0.7,0.7h10.5c0.4,0,0.7-0.3,0.7-0.7s-0.3-0.7-0.7-0.7h-1.3v-2c0-0.1,0-0.1,0-0.2c0-0.4-0.3-0.7-0.7-0.7H2.6
					c-0.6,0-1.1-0.5-1.1-1.1V4.9c0-0.6,0.5-1.1,1.1-1.1h19.1c0.6,0,1.1,0.5,1.1,1.1v12.4c0,0.6-0.5,1.1-1.1,1.1h-2.2
					c-0.4,0-0.7,0.3-0.7,0.7c0,0.4,0.3,0.7,0.7,0.7h2.2c1.3,0,2.4-1.1,2.4-2.4V4.9C24.1,3.6,23.1,2.5,21.7,2.5z M14.7,19.7v1.4H9.6
					v-1.4H14.7L14.7,19.7z"/>
			</g>
		</g>
	</g>
</g>
<line class="st0" x1="3" y1="16" x2="21" y2="16"/>
<rect x="7.8" y="7.6" class="st4" width="17" height="15.4"/>
<text transform="matrix(1 0 0 1 7.7943 15.9964)" class="st5 st6 st7">G</text>
<line class="st0" x1="15.5" y1="6.8" x2="15.5" y2="17.1"/>
<line class="st0" x1="7.5" y1="6.9" x2="7.5" y2="17.1"/>
<line class="st0" x1="2.9" y1="17.1" x2="20.9" y2="17.1"/>
<g class="st8">
	<path class="st9" d="M4.8,16l1.3-0.8l0-4.2L5,10.5l1.8-0.4v5.1L8,16l-1.6-0.2L4.8,16z M6.4,9.6L6,9L5.4,8.6L6,8.3l0.4-0.6l0.3,0.6
		l0.7,0.3L6.8,9L6.4,9.6z"/>
</g>
<rect x="15.4" y="7.6" class="st4" width="14.5" height="11.5"/>
<g class="st8">
	<path class="st9" d="M19.6,15.6v-0.4c-0.2,0.3-0.5,0.6-0.9,0.7c-1.1,0.3-2.4-0.3-2.8-1.4c-0.2-0.5-0.2-1.2,0-1.5
		c0.2-0.5,0.7-0.9,1.3-1.1c0.9-0.3,1.8,0,2.4,0.7c0-1,0-1.2-0.3-1.6c-0.6-0.6-1.8-0.7-2.4-0.2c-0.2,0.2-0.3,0.5-0.3,0.5l-0.6,1l0-1
		c0,0,0.2-0.4,0.6-0.8c0.9-0.8,2.4-0.7,3.2,0.1c0.6,0.6,0.5,0.9,0.5,4.5l1,0.9L19.6,15.6z M18.8,15.3c0.8-0.5,1-1.4,0.6-2.1
		c-0.5-0.8-1.6-1-2.3-0.6c-0.7,0.4-0.8,1.4-0.3,2.1C17.2,15.4,18.1,15.7,18.8,15.3z"/>
</g>
</svg>
