<?xml version="1.0" encoding="utf-8"?>
<!-- Generator: Adobe Illustrator 28.1.0, SVG Export Plug-In . SVG Version: 6.00 Build 0)  -->
<svg version="1.1" id="Ebene_1" xmlns="http://www.w3.org/2000/svg" xmlns:xlink="http://www.w3.org/1999/xlink" x="0px" y="0px"
	 viewBox="0 0 24 24" style="enable-background:new 0 0 24 24;" xml:space="preserve">
<style type="text/css">
	.st0{clip-path:url(#SVGID_00000058555042021564796070000006548499690659964597_);}
	.st1{fill:#F5DEB3;}
	.st2{fill:#FFFFFF;}
	.st3{fill:#D16B86;}
	.st4{fill:#D3B8B6;}
</style>
<g>
	<g>
		<g>
			<g>
				<defs>
					<rect id="SVGID_1_" x="0.1" y="2.5" width="24" height="20"/>
				</defs>
				<clipPath id="SVGID_00000118356250536493373970000014203713920499532204_">
					<use xlink:href="#SVGID_1_"  style="overflow:visible;"/>
				</clipPath>
				<g style="clip-path:url(#SVGID_00000118356250536493373970000014203713920499532204_);">
					<path class="st1" d="M8.9,19h6.5v2.8H8.9V19z"/>
					<path class="st2" d="M21.7,2.5H2.6c-1.3,0-2.4,1.1-2.4,2.4v12.4c0,1.3,1.1,2.4,2.4,2.4h5.7v1.4H6.9c-0.4,0-0.7,0.3-0.7,0.7
						s0.3,0.7,0.7,0.7h10.5c0.4,0,0.7-0.3,0.7-0.7s-0.3-0.7-0.7-0.7h-1.3v-2c0-0.1,0-0.1,0-0.2c0-0.4-0.3-0.7-0.7-0.7H2.6
						c-0.6,0-1.1-0.5-1.1-1.1V4.9c0-0.6,0.5-1.1,1.1-1.1h19.1c0.6,0,1.1,0.5,1.1,1.1v12.4c0,0.6-0.5,1.1-1.1,1.1h-2.2
						c-0.4,0-0.7,0.3-0.7,0.7c0,0.4,0.3,0.7,0.7,0.7h2.2c1.3,0,2.4-1.1,2.4-2.4V4.9C24.1,3.6,23.1,2.5,21.7,2.5z M14.7,19.7v1.4H9.6
						v-1.4H14.7L14.7,19.7z"/>
				</g>
			</g>
		</g>
	</g>
</g>
<rect x="6.5" y="4.6" class="st3" width="6.8" height="0.9"/>
<rect x="6.5" y="5.5" class="st1" width="6.8" height="12.2"/>
<rect x="14.3" y="4.5" class="st3" width="6.8" height="0.9"/>
<rect x="14.3" y="5.4" class="st1" width="6.8" height="4.9"/>
<path class="st4" d="M9.9,10.9"/>
<path class="st3" d="M4.9,15.1H2.7c-0.4,0-0.7-0.3-0.7-0.7V7.1c0-0.4,0.3-0.7,0.7-0.7h2.2c0.4,0,0.7,0.3,0.7,0.7v7.3
	C5.6,14.8,5.3,15.1,4.9,15.1z"/>
</svg>
