<?xml version="1.0" encoding="utf-8"?>
<!-- Generator: Adobe Illustrator 28.1.0, SVG Export Plug-In . SVG Version: 6.00 Build 0)  -->
<svg version="1.1" id="Layer_1" xmlns="http://www.w3.org/2000/svg" xmlns:xlink="http://www.w3.org/1999/xlink" x="0px" y="0px"
	 viewBox="0 0 24 24" style="enable-background:new 0 0 24 24;" xml:space="preserve">
<style type="text/css">
	.st0{clip-path:url(#SVGID_00000044892882346247424490000011607146897116956331_);}
	.st1{fill:#D16B86;}
	.st2{fill:#FFFFFF;}
	.st3{fill:#36496D;}
	.st4{fill:#F5DEB3;}
</style>
<g>
	<defs>
		<rect id="SVGID_1_" x="4" y="0" width="15.3" height="24"/>
	</defs>
	<clipPath id="SVGID_00000106864236376418036700000004069237670703652996_">
		<use xlink:href="#SVGID_1_"  style="overflow:visible;"/>
	</clipPath>
	<g style="clip-path:url(#SVGID_00000106864236376418036700000004069237670703652996_);">
		<path class="st1" d="M18.7,3.4V2.2c0-0.9-0.7-1.6-1.6-1.6H6.2c-0.9,0-1.6,0.7-1.6,1.6v1.2H18.7z M4.6,18.7v3.1
			c0,0.9,0.7,1.6,1.6,1.6h10.9c0.9,0,1.6-0.7,1.6-1.6v-3.1H4.6z"/>
		<path class="st2" d="M17.1,0H6.2C5,0,4,1,4,2.2v19.6C4,23,5,24,6.2,24h10.9c1.2,0,2.2-1,2.2-2.2v-5.3c0-0.4-0.3-0.6-0.6-0.6
			c-0.4,0-0.6,0.3-0.6,0.6V18H5.3V4h12.8v8c0,0.4,0.3,0.6,0.6,0.6c0.4,0,0.6-0.3,0.6-0.6V2.2C19.3,1,18.4,0,17.1,0z M18.1,19.3v2.5
			c0,0.5-0.4,0.9-0.9,0.9H6.2c-0.5,0-0.9-0.4-0.9-0.9v-2.5H18.1z M5.3,2.7V2.2c0-0.5,0.4-0.9,0.9-0.9h10.9c0.5,0,0.9,0.4,0.9,0.9
			v0.5H5.3z"/>
		<path class="st3" d="M11.7,21.5c0.2,0,0.4-0.2,0.4-0.4c0-0.2-0.2-0.4-0.4-0.4c-0.2,0-0.4,0.2-0.4,0.4
			C11.2,21.3,11.4,21.5,11.7,21.5z"/>
		<path class="st4" d="M11.7,22.1c-0.6,0-1.1-0.5-1.1-1.1c0-0.6,0.5-1.1,1.1-1.1c0.6,0,1.1,0.5,1.1,1.1
			C12.8,21.6,12.3,22.1,11.7,22.1z M10.5,10.5H7.3c-0.4,0-0.6-0.3-0.6-0.6V7c0-0.4,0.3-0.6,0.6-0.6h3.2c0.4,0,0.6,0.3,0.6,0.6
			s-0.3,0.6-0.6,0.6H7.9v1.5h2.6c0.4,0,0.6,0.3,0.6,0.6C11.1,10.2,10.8,10.5,10.5,10.5L10.5,10.5z"/>
		<path class="st4" d="M12.9,7h3.2v2.8h-3.2V7z"/>
		<path class="st1" d="M16.1,10.5h-3.2c-0.4,0-0.6-0.3-0.6-0.6V7c0-0.4,0.3-0.6,0.6-0.6h3.2c0.4,0,0.6,0.3,0.6,0.6v2.8
			C16.7,10.2,16.5,10.5,16.1,10.5z M13.5,9.2h1.9V7.7h-1.9L13.5,9.2z"/>
		<path class="st1" d="M7.3,12.4h3.2v2.8H7.3V12.4z"/>
		<path class="st4" d="M10.5,15.9H7.3c-0.4,0-0.6-0.3-0.6-0.6v-2.8c0-0.4,0.3-0.6,0.6-0.6h3.2c0.4,0,0.6,0.3,0.6,0.6v2.8
			C11.1,15.6,10.8,15.9,10.5,15.9z M7.9,14.6h1.9v-1.5H7.9L7.9,14.6L7.9,14.6z M16.1,15.9h-3.2c-0.4,0-0.6-0.3-0.6-0.6
			c0-0.4,0.3-0.6,0.6-0.6h2.6v-1.5h-2.6c-0.4,0-0.6-0.3-0.6-0.6c0-0.4,0.3-0.6,0.6-0.6h3.2c0.4,0,0.6,0.3,0.6,0.6v2.8
			C16.7,15.6,16.4,15.9,16.1,15.9z"/>
	</g>
</g>
</svg>
