<?xml version="1.0" encoding="utf-8"?>
<!-- Generator: Adobe Illustrator 28.2.0, SVG Export Plug-In . SVG Version: 6.00 Build 0)  -->
<svg version="1.1" id="Ebene_1" xmlns="http://www.w3.org/2000/svg" xmlns:xlink="http://www.w3.org/1999/xlink" x="0px" y="0px"
	 viewBox="0 0 24 24" style="enable-background:new 0 0 24 24;" xml:space="preserve">
<style type="text/css">
	.st0{clip-path:url(#SVGID_00000036250232724646107820000001736042990461065904_);}
	.st1{fill:#F5DEB3;}
	.st2{fill:#FFFFFF;}
	.st3{fill:#D3B8B6;}
	.st4{fill:#D16B86;}
</style>
<g>
	<g>
		<g>
			<g>
				<g>
					<defs>
						<rect id="SVGID_1_" x="0.1" y="2.5" width="24" height="20"/>
					</defs>
					<clipPath id="SVGID_00000181776933611553256460000003638442751882709144_">
						<use xlink:href="#SVGID_1_"  style="overflow:visible;"/>
					</clipPath>
					<g style="clip-path:url(#SVGID_00000181776933611553256460000003638442751882709144_);">
						<path class="st1" d="M8.9,19h6.5v2.8H8.9V19z"/>
						<path class="st2" d="M21.7,2.5H2.6c-1.3,0-2.4,1.1-2.4,2.4v12.4c0,1.3,1.1,2.4,2.4,2.4h5.7v1.4H6.9c-0.4,0-0.7,0.3-0.7,0.7
							s0.3,0.7,0.7,0.7h10.5c0.4,0,0.7-0.3,0.7-0.7s-0.3-0.7-0.7-0.7h-1.3v-2c0-0.1,0-0.1,0-0.2c0-0.4-0.3-0.7-0.7-0.7H2.6
							c-0.6,0-1.1-0.5-1.1-1.1V4.9c0-0.6,0.5-1.1,1.1-1.1h19.1c0.6,0,1.1,0.5,1.1,1.1v12.4c0,0.6-0.5,1.1-1.1,1.1h-2.2
							c-0.4,0-0.7,0.3-0.7,0.7c0,0.4,0.3,0.7,0.7,0.7h2.2c1.3,0,2.4-1.1,2.4-2.4V4.9C24.1,3.6,23.1,2.5,21.7,2.5z M14.7,19.7v1.4
							H9.6v-1.4H14.7L14.7,19.7z"/>
					</g>
				</g>
			</g>
		</g>
	</g>
</g>
<path class="st3" d="M9.9,10.9"/>
<path class="st4" d="M16.1,17.3h-5.6c-1,0-1.8-0.4-1.8-0.9V7.3c0-0.5,0.8-0.9,1.8-0.9h5.6c1,0,1.8,0.4,1.8,0.9v9.2
	C17.8,16.9,17.1,17.3,16.1,17.3z"/>
<rect x="6.5" y="8.6" class="st1" width="6.8" height="6.8"/>
<g>
	<path class="st4" d="M6.9,12.6h0.3v0c0,0.4,0.3,0.5,0.6,0.5c0.3,0,0.5-0.2,0.5-0.5c0-0.3-0.2-0.5-0.5-0.5H7.6v-0.3h0.2
		c0.3,0,0.5-0.2,0.5-0.5c0-0.3-0.2-0.5-0.5-0.5c-0.3,0-0.5,0.2-0.5,0.5v0H6.9v0c0-0.6,0.4-0.8,0.8-0.8c0.4,0,0.8,0.2,0.8,0.8
		c0,0.3-0.2,0.6-0.4,0.7c0.2,0.1,0.4,0.4,0.4,0.7c0,0.6-0.4,0.8-0.8,0.8C7.4,13.4,6.9,13.2,6.9,12.6L6.9,12.6z"/>
	<path class="st4" d="M9.9,10.4c0.4,0,0.8,0.2,0.8,0.8v0h-0.3v0c0-0.4-0.2-0.5-0.5-0.5c-0.3,0-0.5,0.2-0.5,0.5v0.5
		c0.1-0.1,0.3-0.2,0.5-0.2c0.4,0,0.8,0.2,0.8,0.8v0.2c0,0.6-0.4,0.8-0.8,0.8s-0.8-0.2-0.8-0.8v-1.3C9.1,10.7,9.5,10.4,9.9,10.4z
		 M9.4,12.6c0,0.4,0.2,0.5,0.5,0.5c0.3,0,0.5-0.2,0.5-0.5v-0.2c0-0.4-0.2-0.5-0.5-0.5c-0.3,0-0.5,0.2-0.5,0.5V12.6z"/>
	<path class="st4" d="M11.3,12.2v-1.7h1.5v0.3h-1.2v0.9c0.1-0.1,0.3-0.2,0.5-0.2c0.4,0,0.8,0.2,0.8,0.8v0.2c0,0.6-0.4,0.8-0.8,0.8
		s-0.8-0.2-0.8-0.8v0h0.3v0c0,0.4,0.2,0.5,0.5,0.5c0.3,0,0.5-0.2,0.5-0.5v-0.2c0-0.4-0.2-0.5-0.5-0.5c-0.2,0-0.4,0.1-0.5,0.3H11.3z"
		/>
</g>
</svg>
