<?xml version="1.0" encoding="utf-8"?>
<!-- Generator: Adobe Illustrator 28.1.0, SVG Export Plug-In . SVG Version: 6.00 Build 0)  -->
<svg version="1.1" id="Ebene_1" xmlns="http://www.w3.org/2000/svg" xmlns:xlink="http://www.w3.org/1999/xlink" x="0px" y="0px"
	 viewBox="0 0 24 24" style="enable-background:new 0 0 24 24;" xml:space="preserve">
<style type="text/css">
	.st0{clip-path:url(#SVGID_00000127742442955401509770000011492052527422284452_);}
	.st1{fill:#F5DEB3;}
	.st2{fill:#FFFFFF;}
	.st3{fill:#F5DEB3;stroke:#D16B86;stroke-width:0.75;stroke-miterlimit:10;}
	.st4{fill:none;}
</style>
<g>
	<defs>
		<rect id="SVGID_1_" x="0.1" y="2.5" width="24" height="20"/>
	</defs>
	<clipPath id="SVGID_00000016074693455847577420000003115980363661054088_">
		<use xlink:href="#SVGID_1_"  style="overflow:visible;"/>
	</clipPath>
	<g style="clip-path:url(#SVGID_00000016074693455847577420000003115980363661054088_);">
		<path class="st1" d="M8.9,19h6.5v2.8H8.9V19z"/>
		<path class="st2" d="M21.7,2.5H2.6c-1.3,0-2.4,1.1-2.4,2.4v12.4c0,1.3,1.1,2.4,2.4,2.4h5.7v1.4H6.9c-0.4,0-0.7,0.3-0.7,0.7
			s0.3,0.7,0.7,0.7h10.5c0.4,0,0.7-0.3,0.7-0.7s-0.3-0.7-0.7-0.7h-1.3v-2c0-0.1,0-0.1,0-0.2c0-0.4-0.3-0.7-0.7-0.7H2.6
			c-0.6,0-1.1-0.5-1.1-1.1V4.9c0-0.6,0.5-1.1,1.1-1.1h19.1c0.6,0,1.1,0.5,1.1,1.1v12.4c0,0.6-0.5,1.1-1.1,1.1h-2.2
			c-0.4,0-0.7,0.3-0.7,0.7c0,0.4,0.3,0.7,0.7,0.7h2.2c1.3,0,2.4-1.1,2.4-2.4V4.9C24.1,3.6,23.1,2.5,21.7,2.5z M14.7,19.7v1.4H9.6
			v-1.4H14.7L14.7,19.7z"/>
		<polygon class="st3" points="8.6,6.7 6.8,8.4 6.8,15.7 14.1,15.7 15.8,14 15.8,6.7 		"/>
		<line class="st4" x1="16" y1="7.7" x2="14.2" y2="9.6"/>
	</g>
</g>
</svg>
