<?xml version="1.0" encoding="utf-8"?>
<!-- Generator: Adobe Illustrator 28.1.0, SVG Export Plug-In . SVG Version: 6.00 Build 0)  -->
<svg version="1.1" id="Ebene_1" xmlns="http://www.w3.org/2000/svg" xmlns:xlink="http://www.w3.org/1999/xlink" x="0px" y="0px"
	 viewBox="0 0 24 24" style="enable-background:new 0 0 24 24;" xml:space="preserve">
<style type="text/css">
	.st0{clip-path:url(#SVGID_00000023962187751868572410000005223714218516902066_);}
	.st1{fill:#F5DEB3;}
	.st2{fill:#FFFFFF;}
	.st3{fill:#E58FAA;}
	.st4{fill:#D16B86;}
	.st5{fill:none;stroke:#FFFFFF;stroke-width:0.25;stroke-miterlimit:10;}
	.st6{fill:none;stroke:#FFFFFF;stroke-width:0.75;stroke-miterlimit:10;}
	.st7{fill:none;stroke:#0C0C0C;stroke-width:0.25;stroke-miterlimit:10;}
</style>
<g>
	<g>
		<g>
			<defs>
				<rect id="SVGID_1_" x="0.1" y="2.7" width="24" height="20"/>
			</defs>
			<clipPath id="SVGID_00000140692885083298760590000016355105008208705152_">
				<use xlink:href="#SVGID_1_"  style="overflow:visible;"/>
			</clipPath>
			<g style="clip-path:url(#SVGID_00000140692885083298760590000016355105008208705152_);">
				<path class="st1" d="M8.8,19.1h6.5v2.8H8.8V19.1z"/>
				<path class="st2" d="M21.6,2.6H2.5C1.2,2.6,0.1,3.7,0.1,5v12.4c0,1.3,1.1,2.4,2.4,2.4h5.7v1.4H6.8c-0.4,0-0.7,0.3-0.7,0.7
					s0.3,0.7,0.7,0.7h10.5c0.4,0,0.7-0.3,0.7-0.7s-0.3-0.7-0.7-0.7H16v-2c0-0.1,0-0.1,0-0.2c0-0.4-0.3-0.7-0.7-0.7H2.5
					c-0.6,0-1.1-0.5-1.1-1.1V5c0-0.6,0.5-1.1,1.1-1.1h19.1c0.6,0,1.1,0.5,1.1,1.1v12.4c0,0.6-0.5,1.1-1.1,1.1h-2.2
					c-0.4,0-0.7,0.3-0.7,0.7c0,0.4,0.3,0.7,0.7,0.7h2.2c1.3,0,2.4-1.1,2.4-2.4V5C24,3.7,23,2.6,21.6,2.6z M14.6,19.8v1.4H9.5v-1.4
					H14.6L14.6,19.8z"/>
				<path d="M12,7.9"/>
				<polygon class="st3" points="11.4,11 6.8,7.8 11.4,5.9 16,7.8 				"/>
				<polygon class="st4" points="16,7.8 16,13.8 11.4,16.5 11.4,11 				"/>
				<polygon class="st4" points="11.4,16.5 7,13.8 6.8,7.8 11.4,11 				"/>
				<path class="st5" d="M10,11.8"/>
				<path class="st6" d="M11.2,7.2L8.8,8.7C8.4,9,8.2,9.4,8.2,9.8v2.8"/>
				<line class="st6" x1="8.2" y1="9" x2="11.4" y2="11.3"/>
				<path class="st7" d="M16.3,15.8"/>
				<path class="st6" d="M11.7,7.2l2.4,1.5c0.4,0.2,0.6,0.6,0.6,1v2.8"/>
				<line class="st6" x1="14.4" y1="9" x2="11" y2="11.2"/>
				<path class="st6" d="M14.5,13.4l-2.6,1.3c-0.4,0.2-0.8,0.2-1.2,0l-2.4-1.4"/>
				<line class="st6" x1="11.3" y1="14.9" x2="11.2" y2="10.9"/>
			</g>
		</g>
	</g>
</g>
</svg>
