<?xml version="1.0" encoding="utf-8"?>
<!-- Generator: Adobe Illustrator 28.1.0, SVG Export Plug-In . SVG Version: 6.00 Build 0)  -->
<svg version="1.1" id="Ebene_1" xmlns="http://www.w3.org/2000/svg" xmlns:xlink="http://www.w3.org/1999/xlink" x="0px" y="0px"
	 viewBox="0 0 24 24" style="enable-background:new 0 0 24 24;" xml:space="preserve">
<style type="text/css">
	.st0{clip-path:url(#SVGID_00000004527949580033561140000003563917791546599100_);}
	.st1{fill:#D16B86;}
	.st2{fill:#FFFFFF;}
	.st3{fill:#F5DEB3;}
</style>
<g>
	<g>
		<defs>
			<rect id="SVGID_1_" y="2" width="24" height="20"/>
		</defs>
		<clipPath id="SVGID_00000178181356325759701560000016599111722482067350_">
			<use xlink:href="#SVGID_1_"  style="overflow:visible;"/>
		</clipPath>
		<g style="clip-path:url(#SVGID_00000178181356325759701560000016599111722482067350_);">
			<path class="st1" d="M8.8,18.6h6.5v2.8H8.8V18.6z"/>
			<path class="st2" d="M21.6,2H2.4C1.1,2,0,3.1,0,4.4v12.4c0,1.3,1.1,2.4,2.4,2.4h5.7v1.4H6.7c-0.4,0-0.7,0.3-0.7,0.7
				S6.4,22,6.7,22h10.5c0.4,0,0.7-0.3,0.7-0.7s-0.3-0.7-0.7-0.7h-1.3v-2c0-0.1,0-0.1,0-0.2c0-0.4-0.3-0.7-0.7-0.7H2.4
				c-0.6,0-1.1-0.5-1.1-1.1V4.4c0-0.6,0.5-1.1,1.1-1.1h19.1c0.6,0,1.1,0.5,1.1,1.1v12.4c0,0.6-0.5,1.1-1.1,1.1h-2.2
				c-0.4,0-0.7,0.3-0.7,0.7c0,0.4,0.3,0.7,0.7,0.7h2.2c1.3,0,2.4-1.1,2.4-2.4V4.4C24,3.1,22.9,2,21.6,2z M14.6,19.2v1.4H9.4v-1.4
				H14.6L14.6,19.2z"/>
			<path class="st1" d="M10.3,14.7c-0.6-0.9-0.3-2.2,0.6-2.8c0.9-0.6,2.2-0.3,2.8,0.6c0.4,0.7,0.4,1.5,0,2.2h4.7v-2.4L17,12.1
				c-0.2-0.8-0.6-1.5-1.2-2l0.5-1.3l-2.2-1.3l-0.9,1.1c-0.8-0.2-1.6-0.2-2.4,0L9.9,7.5L7.7,8.8l0.5,1.3c-0.5,0.6-1,1.3-1.2,2
				l-1.4,0.2v2.4L10.3,14.7L10.3,14.7z"/>
			<path class="st3" d="M18.4,15.4h-4.7c-0.4,0-0.7-0.3-0.7-0.7c0-0.1,0-0.3,0.1-0.4c0.4-0.6,0.2-1.4-0.4-1.8
				c-0.6-0.4-1.4-0.2-1.8,0.4c-0.3,0.4-0.3,1,0,1.4c0.2,0.3,0.1,0.7-0.2,0.9c-0.1,0.1-0.2,0.1-0.4,0.1H5.6c-0.4,0-0.7-0.3-0.7-0.7
				v-2.4c0-0.3,0.2-0.6,0.6-0.7l1-0.2C6.7,11,7,10.4,7.4,10L7.1,9C7,8.7,7.1,8.3,7.4,8.2l2.2-1.3c0.3-0.2,0.7-0.1,0.9,0.2l0.7,0.8
				c0.6-0.1,1.2-0.1,1.8,0L13.6,7c0.2-0.3,0.6-0.3,0.9-0.2l2.2,1.3C16.9,8.3,17.1,8.7,17,9l-0.4,1c0.4,0.5,0.7,1,0.9,1.6l1,0.2
				c0.3,0.1,0.6,0.3,0.6,0.7v2.4C19.1,15.1,18.8,15.4,18.4,15.4L18.4,15.4z M14.6,14.1h3.1V13l-0.9-0.1c-0.3,0-0.5-0.2-0.5-0.5
				c-0.2-0.7-0.6-1.3-1-1.8c-0.2-0.2-0.2-0.5-0.1-0.7L15.5,9l-1.2-0.7L13.7,9c-0.2,0.2-0.4,0.3-0.7,0.2c-0.7-0.2-1.4-0.2-2.1,0
				c-0.3,0.1-0.5,0-0.7-0.2L9.7,8.3L8.5,9l0.3,0.8c0.1,0.2,0,0.5-0.1,0.7c-0.5,0.5-0.8,1.1-1,1.8c-0.1,0.2-0.3,0.4-0.5,0.5l-0.9,0.1
				V14h3.1c0-0.1,0-0.3,0-0.4c0-1.5,1.2-2.7,2.7-2.6c1.5,0,2.6,1.2,2.6,2.6C14.7,13.8,14.7,13.9,14.6,14.1z"/>
		</g>
	</g>
</g>
</svg>
