<?xml version="1.0" encoding="utf-8"?>
<!-- Generator: Adobe Illustrator 28.2.0, SVG Export Plug-In . SVG Version: 6.00 Build 0)  -->
<svg version="1.1" id="Ebene_1" xmlns="http://www.w3.org/2000/svg" xmlns:xlink="http://www.w3.org/1999/xlink" x="0px" y="0px"
	 viewBox="0 0 34.2 24" style="enable-background:new 0 0 34.2 24;" xml:space="preserve">
<style type="text/css">
	.st0{fill:#D16B86;stroke:#D16B86;stroke-width:0.5;stroke-miterlimit:10;}
	.st1{fill:#D16B86;}
</style>
<g>
	<g>
		<g>
			<path class="st0" d="M14.8,22h-3.5c-0.1,0-2.7,0-5.3-1.3c-2.4-1.2-5.4-3.8-5.4-9.2c0-3.1,0.9-5.6,2.8-7.4
				c3.1-3.1,7.7-3.1,7.9-3.1h3.5c0.2,0,0.4,0.2,0.4,0.4v4.6c0,0.1-0.1,0.2-0.2,0.2s-0.2-0.1-0.2-0.2V1.5c0,0,0,0,0,0h-3.5
				c0,0,0,0,0,0c-0.1,0-4.7,0-7.6,2.9C1.9,6.1,1,8.5,1,11.5c0,4.2,1.7,7.1,5.1,8.8c2.5,1.3,5.1,1.3,5.2,1.3h3.5c0,0,0.1,0,0.1,0
				v-4.7c0-0.1,0.1-0.2,0.2-0.2s0.2,0.1,0.2,0.2v4.7C15.3,21.8,15,22,14.8,22z"/>
		</g>
		<g>
			<path class="st0" d="M19.2,22C19,22,19,21.9,19,21.8V1.3c0-0.1,0.1-0.2,0.2-0.2c0.1,0,0.2,0.1,0.2,0.2v20.5
				C19.4,21.9,19.3,22,19.2,22z"/>
		</g>
		<g>
			<path class="st0" d="M10.9,21.9c-0.1,0-0.2-0.1-0.2-0.2V8.9c0-0.1,0.1-0.2,0.2-0.2s0.2,0.1,0.2,0.2v12.7
				C11.1,21.8,11,21.9,10.9,21.9z"/>
		</g>
		<g>
			<path class="st0" d="M19.2,11.6c-0.1,0-0.2-0.1-0.2-0.2c0-0.1,0.1-0.2,0.2-0.2c8.2,0,10.1-9.8,10.1-9.9c0-0.1,0.1-0.2,0.2-0.2
				c0.1,0,0.2,0.1,0.2,0.2C29.7,1.4,27.7,11.6,19.2,11.6z"/>
		</g>
		<g>
			<path class="st0" d="M29.5,22C29.5,22,29.5,22,29.5,22c-0.1,0-0.2-0.1-0.2-0.2c0,0,0.1-4.6-2.9-7.6c-1.7-1.7-4.2-2.6-7.2-2.6
				c-0.1,0-0.2-0.1-0.2-0.2c0-0.1,0.1-0.2,0.2-0.2c3.2,0,5.7,0.9,7.5,2.8c3.1,3.1,3,7.7,3,7.8C29.7,21.9,29.6,22,29.5,22z"/>
		</g>
		<g>
			<path class="st0" d="M15,14.8C15,14.8,15,14.8,15,14.8c-0.2,0-0.3-0.1-0.4-0.2l-3.9-5.6c-0.1-0.1,0-0.2,0.1-0.3
				c0.1-0.1,0.2,0,0.3,0.1l3.9,5.6c0,0,0,0,0.1,0c0,0,0,0,0,0c0,0,0,0,0.1,0l3.9-5.5c0.1-0.1,0.2-0.1,0.3-0.1
				c0.1,0.1,0.1,0.2,0.1,0.3l-3.9,5.5C15.3,14.8,15.2,14.8,15,14.8z"/>
		</g>
	</g>
	<g>
		<g>
			<path d="M13.5,21.9c-0.2,0-0.3-0.2-0.4-0.4c0-0.1,0-0.1,0-0.2c0,0,0-0.1,0-0.2c0.1-0.3,0.2-0.8,0.6-1.2c0.1-0.2,0.2-0.4,0.3-0.6
				c0.1-0.2,0.1-0.4,0.2-0.7c0.1-0.3,0.2-0.7,0.3-1.2c0.5-2,1-3.3,1.4-4.1c0.1-0.3,0.3-0.5,0.4-0.5c0,0,0.1,0,0.1,0c0,0,0,0.1,0,0.1
				c0,0.1,0,0.1-0.1,0.1c0,0-0.1,0.1-0.2,0.4c-0.1,0.2-0.2,0.5-0.4,0.9c-0.1,0.4-0.3,0.8-0.4,1.2c-0.1,0.4-0.3,0.9-0.4,1.3
				c0.1-0.1,0.1-0.2,0.1-0.2c0.2-0.4,0.5-0.8,0.7-1.2c1-1.4,1.8-2.3,2.4-2.5c0.1,0,0.2,0,0.2,0c0.2,0,0.3,0.1,0.4,0.2
				c0.2,0.2,0.2,0.4,0.2,0.8c0,0.3,0,0.6-0.1,0.9c-0.4,1.3-1,2.6-1.9,4c-0.7,1-1.4,1.8-2.3,2.4c-0.5,0.4-1,0.6-1.2,0.6
				C13.5,21.9,13.5,21.9,13.5,21.9z M13.9,21.6c0.5-0.2,1.1-0.7,1.8-1.4c0.6-0.6,1.2-1.4,1.7-2.2c0.1-0.1,0.2-0.3,0.3-0.5
				c0.1-0.2,0.2-0.4,0.3-0.6c0.1-0.2,0.2-0.4,0.2-0.5c0.1-0.1,0.1-0.2,0.1-0.2v0h0c0,0-0.1,0-0.2,0.1c-0.1,0-0.2,0.1-0.3,0.1
				c-0.6,0.3-1.4,1-2.4,2c-0.2,0.2-0.4,0.4-0.6,0.6c-0.2,0.2-0.3,0.4-0.5,0.5c-0.1,0.1-0.2,0.2-0.2,0.3c0,0.1-0.1,0.2-0.1,0.2
				c-0.1,0-0.2,0.2-0.3,0.4s-0.2,0.5-0.3,0.6c0,0.1,0,0.2,0,0.3c0,0.1,0,0.2,0.1,0.3c0,0,0.1,0,0.1,0C13.7,21.7,13.8,21.7,13.9,21.6
				z M16.1,17.5c1-0.9,1.7-1.3,2.1-1.4c0,0,0.1,0,0.1,0c0,0,0,0,0.1,0c0,0,0,0,0,0h0c0.1-0.2,0.2-0.5,0.3-0.9
				c0.1-0.3,0.2-0.7,0.2-1.1c0-0.2,0-0.3,0-0.3c0-0.1,0-0.1,0-0.1c-0.1-0.2-0.2-0.3-0.3-0.3c0,0-0.1,0-0.1,0c-0.1,0-0.3,0.1-0.5,0.3
				c-0.3,0.2-0.6,0.6-1,0.9c-0.8,1-1.5,2-2,3.1c-0.3,0.6-0.5,1.1-0.6,1.5c0,0,0,0,0.1-0.1c0.1,0,0.1-0.1,0.2-0.2
				c0.1-0.1,0.2-0.2,0.4-0.4C15.5,18,15.9,17.7,16.1,17.5L16.1,17.5z"/>
			<path d="M13.6,22c0,0-0.1,0-0.1,0c-0.2,0-0.4-0.2-0.4-0.4c0,0,0-0.1,0-0.2c0,0,0-0.1,0-0.2c0.1-0.4,0.3-0.8,0.6-1.3
				c0.1-0.2,0.2-0.4,0.3-0.5c0.1-0.2,0.1-0.4,0.2-0.7c0.1-0.3,0.2-0.7,0.3-1.2c0.5-2,1-3.3,1.4-4.1c0.2-0.5,0.4-0.6,0.6-0.5
				c0.1,0,0.1,0.1,0.1,0.2c0,0.1,0,0.2-0.1,0.2c0,0-0.1,0.1-0.2,0.3c-0.1,0.2-0.2,0.5-0.4,0.9c-0.1,0.4-0.3,0.8-0.4,1.2
				c-0.1,0.2-0.2,0.5-0.2,0.7c0.2-0.3,0.4-0.6,0.6-0.9c1-1.5,1.8-2.3,2.5-2.5c0.1,0,0.2,0,0.3,0c0.2,0,0.3,0.1,0.5,0.2
				c0.2,0.2,0.3,0.5,0.3,0.9c0,0.3,0,0.6-0.1,0.9c-0.4,1.3-1,2.6-1.9,4c-0.7,1-1.4,1.8-2.3,2.5C14.3,21.8,13.9,22,13.6,22z
				 M16.3,13.1c0,0-0.1,0-0.3,0.5c-0.4,0.8-0.8,2.1-1.4,4.1c-0.1,0.5-0.3,0.9-0.3,1.2c-0.1,0.2-0.1,0.5-0.2,0.7
				c0,0.2-0.1,0.4-0.3,0.6c-0.3,0.5-0.5,0.9-0.6,1.2c0,0.1,0,0.1,0,0.2c0,0,0,0.1,0,0.1c0,0.2,0.1,0.3,0.3,0.3l0,0c0,0,0.1,0,0.1,0
				c0.3,0,0.7-0.2,1.2-0.6c0.9-0.6,1.6-1.5,2.3-2.4c0.9-1.3,1.5-2.7,1.9-3.9C19,14.6,19,14.3,19,14c0-0.3-0.1-0.6-0.2-0.8
				c-0.1-0.1-0.3-0.2-0.6-0.1c-0.6,0.2-1.4,1.1-2.4,2.5c-0.3,0.4-0.5,0.8-0.7,1.2c0,0.1-0.1,0.1-0.1,0.2l-0.3,0.4l0.1-0.4
				c0.1-0.4,0.3-0.9,0.4-1.3c0.1-0.4,0.3-0.8,0.4-1.2c0.1-0.4,0.3-0.7,0.4-0.9c0.2-0.3,0.2-0.4,0.3-0.4
				C16.3,13.1,16.3,13.1,16.3,13.1C16.3,13.1,16.3,13.1,16.3,13.1C16.3,13.1,16.3,13.1,16.3,13.1z M13.6,21.8c-0.1,0-0.1,0-0.1,0
				l0,0c-0.1-0.1-0.1-0.2-0.1-0.3c0-0.1,0-0.2,0-0.3c0.1-0.2,0.2-0.4,0.3-0.7c0.2-0.3,0.3-0.4,0.3-0.4c0,0,0.1,0,0.1-0.2
				c0,0,0-0.1,0.2-0.3c0.1-0.1,0.3-0.3,0.5-0.5c0.2-0.2,0.4-0.4,0.6-0.6c1-1,1.8-1.6,2.4-2c0.1-0.1,0.2-0.1,0.3-0.2
				c0.1-0.1,0.2-0.1,0.2-0.1h0.1l0,0.1c0,0,0,0.1-0.1,0.3c-0.1,0.1-0.1,0.3-0.2,0.5c-0.1,0.2-0.2,0.4-0.3,0.6
				c-0.1,0.2-0.2,0.4-0.3,0.5c-0.5,0.9-1.1,1.6-1.7,2.2c-0.7,0.7-1.3,1.2-1.8,1.4l0,0C13.8,21.7,13.7,21.8,13.6,21.8z M13.5,21.6
				C13.5,21.6,13.5,21.6,13.5,21.6c0.2,0,0.3,0,0.4,0c0.5-0.2,1.1-0.7,1.8-1.4c0.6-0.6,1.2-1.3,1.7-2.2c0.1-0.1,0.2-0.3,0.3-0.5
				c0.1-0.2,0.2-0.4,0.3-0.6c0.1-0.2,0.2-0.4,0.2-0.5c0,0,0-0.1,0-0.1c0,0,0,0,0,0c-0.1,0-0.2,0.1-0.3,0.1c-0.6,0.3-1.4,1-2.4,2
				c-0.2,0.2-0.4,0.4-0.6,0.6c-0.2,0.2-0.3,0.4-0.5,0.5c-0.2,0.2-0.2,0.2-0.2,0.2c0,0.2-0.1,0.2-0.2,0.3c0,0-0.1,0.1-0.3,0.4
				c-0.1,0.2-0.2,0.4-0.3,0.6c0,0.1,0,0.2,0,0.3C13.4,21.5,13.4,21.6,13.5,21.6z M14.3,19.2h-0.1H14.3c0-0.5,0.2-1,0.5-1.6
				c0.5-1.1,1.2-2.1,2-3.1c0.3-0.4,0.7-0.7,1-1c0.2-0.1,0.4-0.2,0.5-0.3c0,0,0.1,0,0.1,0c0.1,0,0.3,0.1,0.4,0.3c0,0,0,0.1,0,0.2
				c0,0.1,0,0.2,0,0.3c0,0.4-0.1,0.8-0.2,1.1c-0.1,0.4-0.2,0.7-0.3,0.9l0,0h-0.1c0,0-0.1,0-0.1,0c0,0-0.1,0-0.1,0
				c-0.4,0.1-1.1,0.6-2,1.4L16,17.6v0c-0.2,0.2-0.5,0.5-0.9,0.9c-0.2,0.2-0.3,0.3-0.4,0.4l-0.2,0.2C14.4,19.2,14.4,19.2,14.3,19.2z
				 M18.5,13.4C18.4,13.4,18.4,13.4,18.5,13.4c-0.2,0-0.4,0.1-0.6,0.3c-0.3,0.2-0.6,0.6-0.9,0.9c-0.8,1-1.4,2-2,3.1
				c-0.2,0.5-0.4,0.9-0.5,1.2l0.1-0.1c0.1-0.1,0.2-0.2,0.4-0.4c0.5-0.5,0.8-0.8,1-1l0.1-0.1v0c0.9-0.8,1.6-1.2,2-1.3
				c0.1,0,0.1,0,0.2,0c0.1-0.2,0.2-0.5,0.3-0.8c0.1-0.3,0.2-0.7,0.2-1.1c0-0.2,0-0.3,0-0.3c0,0,0-0.1,0-0.1
				C18.6,13.4,18.5,13.4,18.5,13.4z"/>
		</g>
		<g>
			<path d="M19.1,19.1c-0.1,0-0.2-0.1-0.3-0.3c0-0.1,0-0.2,0-0.3c0-0.1,0-0.1,0-0.2c0.1-0.4,0.3-0.8,0.5-1.2
				c0.2-0.3,0.4-0.5,0.6-0.6c0.1,0,0.2-0.1,0.2-0.1c0.1,0,0.1,0,0.1,0c0.1,0,0.1,0.1,0.1,0.2c0,0,0,0.1,0,0.1c0,0.3-0.1,0.5-0.3,0.7
				c-0.1,0.1-0.3,0.2-0.4,0.2c-0.1,0-0.2,0-0.3-0.1l-0.1-0.1l-0.1,0.1c-0.2,0.3-0.2,0.6-0.3,0.9c0,0.1,0,0.2,0.1,0.3
				c0,0,0.1,0,0.2,0c0.1,0,0.2,0,0.4-0.1c0.3-0.1,0.9-0.5,1.8-1.3c0.1-0.1,0.2-0.2,0.3-0.3c0.1,0,0.1-0.1,0.1-0.1
				c0.1,0,0.1,0,0.1,0.1c0,0,0,0.1-0.1,0.1c0,0.1-0.1,0.2-0.3,0.3c-0.6,0.6-1,0.9-1.3,1.1c-0.3,0.2-0.6,0.3-0.9,0.3
				C19.2,19.1,19.1,19.1,19.1,19.1z M19.7,17.4c0.1-0.1,0.2-0.2,0.3-0.3c0.1-0.2,0.1-0.3,0.1-0.4c0-0.1,0-0.1,0-0.1h0
				c-0.1,0-0.2,0.1-0.4,0.3c-0.1,0.1-0.2,0.2-0.2,0.3c0,0,0,0,0,0.1c0,0.1,0,0.1,0.1,0.1C19.6,17.4,19.6,17.4,19.7,17.4
				C19.7,17.4,19.7,17.4,19.7,17.4z"/>
			<path d="M19.3,19.2c-0.1,0-0.2,0-0.2,0l0,0c-0.2-0.1-0.3-0.2-0.4-0.3c0-0.1-0.1-0.2-0.1-0.3c0-0.1,0-0.2,0-0.2
				c0.1-0.4,0.3-0.9,0.5-1.3c0.2-0.3,0.4-0.5,0.6-0.6c0.2-0.1,0.4-0.1,0.5,0c0.1,0,0.2,0.1,0.2,0.3c0,0,0,0.1,0,0.1
				c0,0.3-0.1,0.5-0.3,0.7c-0.3,0.3-0.6,0.3-0.8,0.1l0,0c-0.1,0.3-0.2,0.6-0.3,0.9c0,0.1,0,0.2,0.1,0.2c0,0,0.1,0,0.1,0
				c0.1,0,0.2,0,0.3-0.1c0.3-0.1,0.9-0.5,1.7-1.3c0.1-0.1,0.3-0.2,0.3-0.3c0.1-0.1,0.1-0.1,0.2-0.1c0.1,0,0.2,0.1,0.2,0.2
				c0,0,0,0.1-0.1,0.2c0,0.1-0.1,0.2-0.3,0.3c-0.6,0.6-1,0.9-1.3,1.1C20,19.1,19.6,19.2,19.3,19.2z M19.1,19c0,0,0.1,0,0.2,0
				c0.3,0,0.6-0.1,0.9-0.3c0.3-0.2,0.7-0.5,1.3-1.1c0.2-0.1,0.3-0.2,0.3-0.3c0,0,0-0.1,0-0.1c0,0,0,0,0,0c0,0,0,0-0.1,0
				c-0.1,0-0.2,0.1-0.3,0.3c-0.9,0.8-1.5,1.3-1.8,1.3c-0.2,0.1-0.5,0.1-0.6,0c-0.1-0.1-0.2-0.2-0.2-0.4c0-0.3,0.1-0.6,0.3-1l0.1-0.2
				l0.1,0.1c0.2,0.1,0.4,0.1,0.6-0.1c0.2-0.2,0.3-0.4,0.3-0.6c0,0,0-0.1,0-0.1c0-0.1-0.1-0.2-0.1-0.2c-0.1,0-0.2,0-0.3,0
				c-0.2,0.1-0.4,0.3-0.6,0.6c-0.2,0.4-0.4,0.8-0.5,1.2c0,0.1,0,0.1,0,0.2c0,0.1,0,0.2,0,0.3C18.9,18.9,19,19,19.1,19z M19.6,17.5
				c0,0-0.1,0-0.1,0c0,0-0.1-0.1-0.1-0.1c0,0,0-0.1,0-0.1c0-0.1,0.1-0.2,0.2-0.3c0.2-0.2,0.3-0.3,0.4-0.3l0,0l0,0l0.1,0
				c0.1,0,0.1,0.1,0.1,0.1c0,0.1,0,0.2-0.1,0.4c-0.1,0.1-0.2,0.2-0.3,0.3l0,0C19.7,17.5,19.7,17.5,19.6,17.5z M20,16.8
				c0,0-0.1,0.1-0.3,0.3c-0.2,0.1-0.2,0.2-0.2,0.2c0,0,0,0,0,0c0,0,0,0.1,0,0.1c0,0,0,0,0,0c0,0,0,0,0.1,0c0.1-0.1,0.2-0.1,0.3-0.2
				C20,16.9,20,16.8,20,16.8z"/>
		</g>
		<g>
			<path d="M21.3,21.2c-0.1-0.1-0.1-0.1-0.1-0.3c0-0.1,0-0.1,0-0.2c0.1-0.4,0.4-0.8,0.8-1.2c0.1-0.2,0.3-0.3,0.5-0.5l0.3-0.3l0-0.1
				c0-0.2-0.1-0.4-0.3-0.5c-0.1,0-0.2-0.1-0.3-0.1c-0.2-0.1-0.4-0.1-0.4-0.2c0,0,0-0.1,0-0.1c0-0.1,0.1-0.3,0.2-0.5
				c0.1-0.2,0.2-0.4,0.4-0.5c0.2-0.2,0.3-0.3,0.5-0.3c0.1,0,0.1,0,0.1,0c0.1,0,0.2,0.1,0.3,0.2c0,0,0.1,0.1,0.1,0.2c0,0,0,0.1,0,0.1
				c0,0.2-0.1,0.3-0.1,0.3h0c0,0-0.1,0-0.1,0c0,0,0,0,0-0.1c0,0,0-0.1,0-0.1c0-0.1,0-0.1,0-0.2c0-0.1,0-0.1,0-0.1
				c0,0-0.1-0.1-0.1-0.1c-0.1,0-0.3,0.1-0.4,0.2c-0.1,0.1-0.3,0.3-0.4,0.5C22,17.4,22,17.5,22,17.6c0,0,0,0.1,0,0.1
				c0,0,0.1,0.1,0.3,0.1c0.2,0,0.3,0.1,0.3,0.1c0.2,0.1,0.4,0.3,0.4,0.5c0,0.1,0,0.1,0,0.1l0.2-0.1c0.4-0.3,0.8-0.6,1.2-0.9
				c0.2-0.2,0.4-0.2,0.4-0.2c0,0,0,0,0,0c0.1,0,0.1,0.1,0.1,0.1c0,0,0,0,0,0c0,0-0.1,0.1-0.3,0.2c-0.6,0.4-1.1,0.8-1.5,1.1L23,18.8
				l0,0.1c-0.1,0.5-0.3,1-0.7,1.5c-0.4,0.5-0.7,0.8-0.9,0.8C21.4,21.3,21.3,21.2,21.3,21.2z M21.7,20.8c0.3-0.3,0.6-0.7,0.8-1.1
				c0.1-0.3,0.2-0.5,0.2-0.7c0,0-0.1,0-0.1,0.1c-0.1,0.1-0.2,0.2-0.3,0.3c-0.1,0.1-0.2,0.2-0.2,0.3c-0.4,0.5-0.6,0.9-0.6,1.2
				c0,0,0,0,0,0C21.5,21,21.6,20.9,21.7,20.8z"/>
			<path d="M21.4,21.3c-0.1,0-0.1,0-0.1,0l0,0c-0.1-0.1-0.1-0.2-0.1-0.3c0-0.1,0-0.2,0-0.2c0.1-0.4,0.4-0.8,0.8-1.3
				c0.1-0.2,0.3-0.3,0.5-0.5l0.3-0.3l0-0.1c0-0.2-0.1-0.4-0.3-0.4c0,0-0.1-0.1-0.3-0.1c-0.3-0.1-0.4-0.1-0.5-0.3c0,0,0-0.1,0-0.2
				c0-0.2,0.1-0.3,0.2-0.5c0.1-0.2,0.2-0.4,0.4-0.5c0.2-0.2,0.4-0.3,0.5-0.3c0.1,0,0.1,0,0.2,0c0.2,0,0.3,0.1,0.4,0.3
				c0,0,0.1,0.1,0.1,0.2c0,0,0,0.1,0,0.1c0,0.2-0.1,0.3-0.2,0.4l0,0c-0.1,0-0.1,0-0.1-0.1c0,0,0,0,0-0.1c0,0,0-0.1,0-0.1
				c0-0.1,0-0.1,0-0.1c0,0,0,0,0-0.1c0,0,0,0-0.1,0c-0.1,0-0.2,0-0.4,0.2c-0.1,0.1-0.3,0.3-0.3,0.5c-0.1,0.2-0.1,0.3-0.1,0.3
				c0,0,0,0,0,0c0,0,0,0,0.2,0.1c0.2,0,0.3,0.1,0.3,0.1c0.2,0.1,0.4,0.3,0.5,0.6c0,0,0,0,0,0l0.1-0.1c0.4-0.3,0.8-0.6,1.2-0.9
				c0.3-0.2,0.4-0.2,0.5-0.2c0,0,0,0,0.1,0c0.1,0,0.1,0.1,0.1,0.2c0,0,0,0,0,0.1c0,0-0.1,0.1-0.3,0.2c-0.6,0.4-1.1,0.8-1.5,1.1
				l-0.1,0.1l0,0.1c-0.1,0.5-0.3,1-0.7,1.5C22,21.1,21.7,21.3,21.4,21.3z M21.3,21.2C21.4,21.2,21.4,21.2,21.3,21.2
				c0.2,0,0.5-0.1,0.9-0.8c0.4-0.5,0.6-1,0.6-1.5l0-0.2l0.2-0.1c0.4-0.3,0.9-0.7,1.5-1.1c0.2-0.1,0.3-0.2,0.3-0.2c0,0,0,0,0,0
				c0,0-0.1,0-0.4,0.2c-0.5,0.3-0.9,0.6-1.2,0.9L23,18.5h0c-0.1,0-0.1-0.1-0.1-0.2c-0.1-0.2-0.2-0.4-0.4-0.5c0,0-0.1,0-0.3-0.1
				c-0.2,0-0.3-0.1-0.3-0.1c0,0,0-0.1,0-0.1c0-0.1,0-0.2,0.1-0.4c0.1-0.2,0.2-0.4,0.4-0.5c0.2-0.2,0.3-0.2,0.5-0.2
				c0.1,0,0.1,0,0.2,0.1c0,0,0.1,0.1,0.1,0.2c0,0,0,0.1,0,0.2c0,0,0,0.1,0,0.1l0,0h0c0,0,0.1-0.1,0.1-0.2c0,0,0-0.1,0-0.1
				c0,0,0-0.1,0-0.1c-0.1-0.2-0.2-0.2-0.4-0.2c-0.1,0-0.3,0.1-0.5,0.3c-0.2,0.2-0.3,0.3-0.4,0.5c-0.1,0.2-0.1,0.3-0.1,0.5
				c0,0,0,0.1,0,0.1c0,0.1,0.1,0.1,0.4,0.2c0.2,0,0.3,0.1,0.3,0.1c0.2,0.1,0.3,0.3,0.3,0.6l0,0.2L22.5,19c-0.2,0.2-0.3,0.3-0.5,0.5
				c-0.4,0.5-0.6,0.9-0.8,1.2c0,0.1,0,0.1,0,0.2C21.3,21.1,21.3,21.1,21.3,21.2z M21.5,21.1c0,0-0.1,0-0.1-0.1
				c0-0.3,0.2-0.7,0.6-1.2c0.1-0.1,0.1-0.2,0.2-0.3c0.1-0.1,0.2-0.2,0.3-0.3c0.1-0.1,0.2-0.1,0.2-0.1h0.1l0,0.1
				c0,0.2-0.1,0.4-0.3,0.7c-0.2,0.4-0.5,0.8-0.8,1.1C21.6,21,21.5,21.1,21.5,21.1z M22.5,19.4c-0.1,0.1-0.1,0.1-0.2,0.2
				c-0.1,0.1-0.2,0.2-0.2,0.3c-0.4,0.5-0.6,0.8-0.6,1c0,0,0.1,0,0.1-0.1l0,0c0.3-0.3,0.6-0.6,0.8-1C22.5,19.6,22.5,19.5,22.5,19.4z"
				/>
		</g>
		<g>
			<path d="M24.6,19c-0.2-0.1-0.2-0.2-0.2-0.5c0-0.1,0-0.2,0-0.3c0.1-0.3,0.2-0.5,0.3-0.8c0.1-0.3,0.2-0.5,0.3-0.5c0,0,0,0,0.1,0
				c0.1,0,0.1,0,0.1,0.1c0,0,0,0,0,0.1c0,0,0,0.1-0.1,0.1c-0.2,0.4-0.4,0.8-0.5,1.3c0,0,0,0.1,0,0.1c0,0.2,0.1,0.3,0.2,0.3
				c0.2,0,0.4-0.2,0.8-0.5c0.1-0.1,0.3-0.3,0.6-0.6c0.3-0.3,0.4-0.5,0.5-0.5c0,0,0.1,0,0.1,0c0,0,0.1,0,0.1,0c0,0,0,0.1,0,0.1
				c0,0,0,0.1-0.1,0.1c-0.1,0.1-0.2,0.2-0.4,0.4c-0.3,0.3-0.5,0.5-0.6,0.7c-0.4,0.4-0.8,0.6-1,0.6C24.8,19.1,24.7,19.1,24.6,19z
				 M25.3,16.3C25.2,16.3,25.2,16.3,25.3,16.3c0-0.1,0-0.2,0-0.3c0.1-0.2,0.2-0.3,0.3-0.3c0.1,0,0.1,0,0.1,0.1c0,0,0,0.1,0,0.1
				c0,0-0.1,0.1-0.1,0.2C25.5,16.3,25.4,16.4,25.3,16.3C25.3,16.4,25.3,16.4,25.3,16.3z"/>
			<path d="M24.8,19.1c-0.1,0-0.1,0-0.2-0.1l0,0c-0.2-0.1-0.3-0.3-0.3-0.6c0-0.1,0-0.2,0-0.3c0.1-0.3,0.2-0.6,0.3-0.9
				c0.2-0.4,0.3-0.5,0.3-0.6l0,0c0.1,0,0.2,0,0.3,0.1c0,0,0,0.1,0,0.1c0,0.1,0,0.1-0.1,0.2c-0.2,0.3-0.4,0.8-0.5,1.3
				c0,0,0,0.1,0,0.1c0,0.2,0.1,0.2,0.1,0.2c0.1,0,0.3-0.1,0.7-0.4c0.1-0.1,0.3-0.3,0.6-0.6c0.3-0.3,0.4-0.5,0.5-0.5
				c0.1-0.1,0.2-0.1,0.3,0l0,0c0,0,0,0.1,0,0.1c0,0,0,0.1-0.1,0.2c-0.1,0.1-0.2,0.2-0.4,0.4c-0.3,0.3-0.5,0.5-0.6,0.7
				C25.5,18.9,25.1,19.1,24.8,19.1z M25.1,16.9c0,0-0.1,0.1-0.3,0.5c-0.1,0.3-0.2,0.6-0.3,0.8c0,0.1,0,0.2,0,0.3
				c0,0.2,0.1,0.4,0.2,0.4l0,0c0.1,0,0.1,0,0.2,0c0.2,0,0.6-0.2,1-0.6c0.1-0.1,0.3-0.3,0.6-0.6c0.2-0.2,0.3-0.3,0.4-0.4
				c0.1-0.1,0.1-0.1,0.1-0.1c0,0,0,0,0,0c0,0,0,0-0.1,0c0,0-0.2,0.2-0.5,0.5c-0.3,0.3-0.5,0.5-0.6,0.6c-0.4,0.3-0.7,0.5-0.8,0.5
				c-0.1,0-0.3,0-0.3-0.4c0,0,0-0.1,0-0.1c0.1-0.5,0.3-1,0.5-1.4C25.1,17,25.1,17,25.1,16.9L25.1,16.9
				C25.1,16.9,25.1,16.9,25.1,16.9z M25.3,16.5c0,0-0.1,0-0.1-0.1c0,0-0.1-0.1-0.1-0.1c0-0.1,0-0.1,0.1-0.2c0.1-0.2,0.2-0.3,0.3-0.3
				c0.1,0,0.2,0.1,0.2,0.2c0,0.1,0,0.1-0.1,0.2c0,0-0.1,0.1-0.1,0.2C25.5,16.3,25.5,16.5,25.3,16.5z M25.6,15.9c0,0-0.1,0-0.2,0.3
				c0,0.1,0,0.1,0,0.1c0,0,0,0,0,0l0,0c0,0,0,0,0,0c0,0,0,0,0.1-0.1C25.5,16.1,25.5,16,25.6,15.9C25.6,15.9,25.6,15.9,25.6,15.9
				C25.6,15.9,25.6,15.9,25.6,15.9z"/>
		</g>
		<g>
			<path d="M26.1,23.6c-0.1,0-0.1-0.1-0.1-0.2c0-0.2,0.1-0.5,0.3-0.9c0.5-0.9,1.2-2,2.2-3c0.2-0.2,0.3-0.4,0.4-0.4
				c0-0.1,0.1-0.1,0.1-0.3c0.1-0.3,0.1-0.6,0.1-1c0-0.3,0-0.4,0-0.6c0-0.1-0.1-0.2-0.1-0.2c-0.1,0-0.3,0.1-0.5,0.3
				c0,0.1-0.1,0.1-0.1,0.1c0,0-0.1,0-0.1,0.1c-0.1,0.1-0.2,0.2-0.4,0.4c-0.4,0.4-0.8,0.6-1,0.6c0,0-0.1,0-0.1,0
				c-0.1,0-0.2-0.1-0.2-0.3c0-0.4,0.3-0.8,0.7-1.4c0.4-0.4,0.7-0.6,0.9-0.6c0.1,0,0.1,0,0.2,0c0.2,0.1,0.2,0.3,0.2,0.5V17l0.1-0.1
				c0.1-0.1,0.2-0.1,0.3-0.1c0.1,0,0.2,0.1,0.3,0.2c0.1,0.2,0.2,0.4,0.2,0.8c0,0.2,0,0.5,0,0.8l0,0.1l0.6-0.6
				c0.3-0.3,0.5-0.5,0.7-0.6c0.1-0.1,0.2-0.2,0.3-0.2h0c0.1,0,0.1,0,0.1,0.1c0,0,0,0-0.1,0.1c-0.1,0.1-0.2,0.2-0.3,0.3
				c-0.1,0.1-0.2,0.2-0.4,0.4c-0.4,0.4-0.7,0.7-0.9,0.9l-0.1,0.1L29,19.4c-0.2,0.8-0.6,1.7-1.2,2.6c-0.4,0.6-0.8,1-1.1,1.3
				C26.4,23.5,26.3,23.6,26.1,23.6C26.2,23.6,26.1,23.6,26.1,23.6z M26.7,22.9c0.3-0.3,0.5-0.6,0.7-0.9c0.5-0.6,0.8-1.2,1-1.8
				c0.1-0.3,0.2-0.5,0.2-0.7c0,0,0,0-0.1,0.1c0,0.1-0.1,0.1-0.2,0.2c-0.1,0.1-0.1,0.2-0.2,0.3c-0.1,0.1-0.1,0.2-0.2,0.3
				c-0.7,0.9-1.3,1.7-1.6,2.4c-0.1,0.1-0.1,0.2-0.1,0.3c0,0.1-0.1,0.2-0.1,0.2c0,0,0,0,0,0c0,0,0.1,0,0.1-0.1
				C26.5,23.1,26.6,23,26.7,22.9z M26.8,18.2c0.1-0.1,0.3-0.2,0.6-0.4c0.2-0.2,0.3-0.3,0.5-0.4c0.1-0.1,0.2-0.2,0.2-0.2
				c0-0.1,0-0.1,0-0.3v-0.1c0-0.2,0-0.3-0.1-0.3c0,0-0.1,0-0.1,0c-0.3,0.1-0.5,0.4-0.8,0.8c-0.3,0.4-0.4,0.7-0.4,0.9
				c0,0,0,0.1,0,0.1c0,0,0,0,0,0C26.7,18.2,26.7,18.2,26.8,18.2z"/>
			<path d="M26.2,23.6c0,0-0.1,0-0.1,0c-0.1,0-0.2-0.1-0.2-0.3c0-0.2,0.1-0.5,0.3-0.9c0.5-0.9,1.2-2,2.2-3c0.3-0.3,0.3-0.4,0.4-0.4
				c0,0,0.1-0.1,0.1-0.2c0.1-0.3,0.1-0.6,0.1-1c0-0.3,0-0.4,0-0.5c0-0.1,0-0.1-0.1-0.1c0,0-0.1,0-0.4,0.3c0,0.1-0.1,0.1-0.2,0.1
				c0,0,0,0-0.1,0.1c-0.1,0-0.2,0.2-0.4,0.4c-0.6,0.5-1,0.7-1.2,0.6c-0.1,0-0.2-0.1-0.2-0.4c0-0.4,0.3-0.9,0.7-1.4
				c0.4-0.4,0.7-0.6,1-0.6c0.1,0,0.2,0,0.2,0.1c0.2,0.1,0.3,0.3,0.3,0.6v0.1l0,0c0.1-0.1,0.2-0.1,0.3-0.1c0.1,0,0.2,0.1,0.3,0.2
				c0.1,0.2,0.2,0.5,0.2,0.9c0,0.2,0,0.4,0,0.7l0.4-0.4c0.3-0.3,0.5-0.5,0.7-0.7c0.2-0.2,0.3-0.2,0.3-0.2l0,0c0.1,0,0.2,0.1,0.2,0.2
				l0,0c0,0,0,0-0.1,0.2c-0.1,0.1-0.2,0.2-0.3,0.3c-0.1,0.1-0.2,0.2-0.4,0.4c-0.4,0.4-0.7,0.7-0.9,0.9l-0.1,0.1l-0.1,0.3
				c-0.2,0.8-0.6,1.7-1.3,2.6c-0.4,0.6-0.8,1-1.2,1.4C26.5,23.6,26.3,23.6,26.2,23.6z M28.8,17c0.1,0,0.2,0.1,0.2,0.2
				c0,0.1,0,0.3,0,0.6c0,0.3,0,0.7-0.1,1c0,0.1,0,0.2-0.1,0.3c0,0.1-0.2,0.2-0.4,0.4c-0.9,1.1-1.7,2.1-2.2,3
				c-0.2,0.4-0.3,0.6-0.3,0.8c0,0.1,0.1,0.1,0.1,0.2l0,0c0,0,0,0,0.1,0c0,0,0.2,0,0.4-0.2c0.3-0.3,0.7-0.8,1.1-1.3
				c0.6-0.9,1-1.7,1.2-2.6l0.1-0.3l0.2-0.2c0.1-0.1,0.4-0.4,0.9-0.9c0.1-0.1,0.3-0.3,0.4-0.4c0.1-0.1,0.2-0.2,0.3-0.3
				c0,0,0-0.1,0.1-0.1c0,0,0,0,0,0c0,0-0.1,0.1-0.2,0.2c-0.1,0.1-0.4,0.3-0.7,0.6l-0.7,0.7l0-0.3c0-0.3,0-0.6,0-0.8
				c0-0.4,0-0.6-0.1-0.8c-0.1-0.1-0.2-0.2-0.4,0l-0.3,0.1v-0.3c0-0.2-0.1-0.4-0.2-0.5c0,0-0.1,0-0.1,0c-0.2,0-0.5,0.2-0.9,0.6
				c-0.4,0.5-0.6,1-0.7,1.3c0,0.2,0.1,0.2,0.1,0.2l0,0c0,0,0,0,0.1,0c0.1,0,0.4-0.1,0.9-0.6c0.2-0.2,0.4-0.3,0.4-0.4
				c0.1-0.1,0.1-0.1,0.2-0.1c0,0,0,0,0,0l0,0C28.6,17,28.7,17,28.8,17z M26.2,23.4L26.2,23.4L26.2,23.4c-0.1-0.1-0.1-0.2,0-0.3
				c0-0.1,0.1-0.2,0.1-0.4c0.3-0.7,0.9-1.5,1.6-2.4c0.1-0.1,0.1-0.2,0.2-0.3c0.1-0.1,0.1-0.2,0.2-0.3c0.1-0.1,0.1-0.2,0.2-0.2
				c0.1-0.1,0.1-0.1,0.1-0.1h0.1l0,0.1c0,0.1-0.1,0.4-0.2,0.7c-0.2,0.6-0.6,1.2-1,1.8c-0.2,0.3-0.5,0.7-0.8,0.9l0,0
				c-0.1,0.1-0.2,0.2-0.3,0.3C26.3,23.3,26.3,23.4,26.2,23.4z M28.5,19.8C28.5,19.9,28.5,19.9,28.5,19.8c-0.1,0.1-0.2,0.2-0.2,0.3
				c-0.1,0.1-0.1,0.2-0.2,0.3c-0.7,0.9-1.2,1.7-1.6,2.3c0,0.1-0.1,0.2-0.1,0.3c0,0,0,0,0,0c0.1-0.1,0.2-0.1,0.3-0.2
				c0.3-0.3,0.5-0.6,0.7-0.9c0.5-0.6,0.8-1.2,1-1.8C28.4,20.1,28.5,20,28.5,19.8z M26.6,18.3c-0.1,0-0.1,0-0.1-0.1c0,0,0,0,0-0.1
				c0-0.2,0.1-0.5,0.4-0.9c0.3-0.4,0.6-0.7,0.9-0.8c0,0,0.1,0,0.1,0c0,0,0.1,0,0.1,0c0.1,0.1,0.1,0.2,0.1,0.3v0.1c0,0.1,0,0.2,0,0.3
				c0,0-0.1,0.1-0.2,0.2c-0.1,0.1-0.3,0.2-0.5,0.4c-0.3,0.2-0.5,0.4-0.6,0.4C26.7,18.3,26.7,18.3,26.6,18.3z M28,16.5
				C27.9,16.5,27.9,16.5,28,16.5c-0.3,0.1-0.6,0.4-0.9,0.8c-0.3,0.4-0.4,0.7-0.4,0.9c0,0,0,0,0.1,0l0,0c0.1-0.1,0.3-0.2,0.6-0.4
				c0.2-0.2,0.3-0.3,0.5-0.4c0.2-0.1,0.2-0.2,0.2-0.2c0,0,0-0.1,0-0.2v-0.1C28,16.6,28,16.5,28,16.5L28,16.5L28,16.5z"/>
		</g>
		<g>
			<path d="M30.4,19c0,0-0.1-0.1-0.1-0.1v0c0-0.1,0-0.2,0-0.4c0.1-0.7,0.2-1.3,0.3-1.6c0,0,0.1-0.1,0.1-0.1c0,0,0.1,0,0.1,0.1
				c0,0,0,0,0,0.1c0,0,0,0.1,0,0.1c-0.2,0.7-0.2,1.2-0.3,1.4c0,0,0,0,0.1-0.1c0-0.1,0.1-0.2,0.2-0.3c0.5-0.9,0.9-1.3,1.2-1.3
				c0,0,0.1,0,0.1,0c0.1,0,0.1,0.1,0.1,0.1c0,0,0,0.1,0,0.2c0,0.1,0,0.3,0,0.5c0,0.2,0,0.4,0,0.5V18c0,0.2,0.1,0.4,0.2,0.4
				c0,0,0,0,0.1,0c0.1,0,0.2-0.1,0.4-0.3c0.2-0.2,0.4-0.4,0.7-0.8c0.1-0.1,0.1-0.1,0.2-0.1c0.1,0,0.1,0,0.1,0.1c0,0.1,0,0.1-0.1,0.2
				c-0.3,0.4-0.6,0.7-0.9,0.9c-0.2,0.1-0.3,0.2-0.5,0.2h0c-0.1,0-0.2-0.1-0.3-0.2C32,18.4,32,18.2,32,17.9c0-0.1,0-0.2,0-0.3
				c0-0.3,0.1-0.5,0.1-0.6v0c0,0-0.1,0-0.1,0.1c-0.1,0.1-0.1,0.2-0.2,0.2c-0.2,0.2-0.5,0.7-0.9,1.4c-0.1,0.1-0.1,0.2-0.2,0.3
				C30.6,19,30.5,19,30.4,19C30.5,19,30.4,19,30.4,19z"/>
			<path d="M30.5,19.1c-0.1,0-0.1,0-0.1-0.1c0,0-0.1-0.1-0.1-0.1l0,0v0c0-0.1,0-0.2,0-0.4c0.1-0.7,0.2-1.3,0.3-1.6l0,0
				c0.1-0.1,0.1-0.1,0.2-0.1c0.1,0,0.1,0,0.2,0.1c0,0,0,0.1,0,0.1c0,0,0,0.1,0,0.1c-0.1,0.4-0.2,0.8-0.2,1c0,0,0-0.1,0.1-0.1
				c0.7-1.2,1.1-1.4,1.2-1.4c0,0,0.1,0,0.1,0c0.1,0,0.1,0.1,0.1,0.1c0,0.1,0,0.1,0,0.3c0,0.1,0,0.3,0,0.5c0,0.2,0,0.4,0,0.5V18
				c0,0.2,0.1,0.3,0.2,0.3c0,0,0,0,0,0c0.1,0,0.2-0.1,0.4-0.3c0.2-0.2,0.4-0.4,0.7-0.8c0.1-0.1,0.2-0.2,0.2-0.2
				c0.1,0,0.2,0.1,0.2,0.2c0,0.1,0,0.1-0.1,0.2c-0.3,0.4-0.6,0.7-0.9,0.9c-0.2,0.2-0.4,0.2-0.5,0.2h0c-0.2,0-0.3-0.1-0.4-0.2
				c-0.1-0.1-0.2-0.3-0.2-0.6c0-0.1,0-0.2,0-0.3c0-0.2,0-0.4,0-0.5c-0.1,0.1-0.1,0.1-0.2,0.2c-0.2,0.2-0.5,0.7-0.9,1.4
				c-0.1,0.1-0.1,0.2-0.2,0.3C30.6,19.1,30.6,19.1,30.5,19.1z M30.4,18.9C30.4,18.9,30.4,18.9,30.4,18.9L30.4,18.9
				C30.5,19,30.5,19,30.4,18.9c0.1,0.1,0.1,0.1,0.1,0c0,0,0.1-0.1,0.2-0.2c0.4-0.7,0.7-1.2,0.9-1.4c0.1-0.1,0.1-0.2,0.2-0.2
				c0.1-0.1,0.1-0.1,0.2-0.1h0.1V17c0,0.1,0,0.3-0.1,0.6c0,0.1,0,0.2,0,0.3c0,0.3,0,0.4,0.1,0.5c0.1,0.1,0.2,0.1,0.3,0.1h0
				c0.1,0,0.3-0.1,0.4-0.2c0.3-0.2,0.6-0.5,0.9-0.9c0.1-0.1,0.1-0.1,0.1-0.1c0,0,0,0,0,0c0,0-0.1,0-0.1,0.1
				c-0.3,0.4-0.6,0.6-0.7,0.8c-0.2,0.2-0.3,0.3-0.4,0.3c0,0-0.1,0-0.1,0c-0.1,0-0.3-0.1-0.3-0.4l0-0.1c0-0.1,0-0.3,0-0.5
				c0-0.2,0-0.4,0-0.5c0-0.1,0-0.2,0-0.2c0,0,0,0-0.1-0.1c0,0,0,0,0,0c-0.1,0-0.4,0.2-1.1,1.3c-0.1,0.1-0.1,0.2-0.2,0.3
				c-0.1,0.1-0.1,0.2-0.1,0.2h-0.1l0-0.1c0-0.2,0.1-0.7,0.3-1.4c0-0.1,0-0.1,0-0.1s0,0,0,0c0,0,0,0,0,0c0,0,0,0,0,0
				c-0.1,0.4-0.2,0.9-0.3,1.6C30.4,18.7,30.4,18.8,30.4,18.9L30.4,18.9z"/>
		</g>
	</g>
</g>
<rect x="-726.3" y="-249.7" class="st1" width="88.9" height="109"/>
</svg>
