<?xml version="1.0" encoding="utf-8"?>
<!-- Generator: Adobe Illustrator 28.1.0, SVG Export Plug-In . SVG Version: 6.00 Build 0)  -->
<svg version="1.1" id="Ebene_1" xmlns="http://www.w3.org/2000/svg" xmlns:xlink="http://www.w3.org/1999/xlink" x="0px" y="0px"
	 viewBox="0 0 33 24" style="enable-background:new 0 0 33 24;" xml:space="preserve">
<style type="text/css">
	.st0{fill:#F5DEB3;}
</style>
<g>
	<path class="st0" d="M13.8,14.2c0.3-0.5,0.4-0.6,0.5-0.6c0.2,0,0.5,0.5,0.5,0.8s-0.1,0.5-0.5,1.1c-0.8,1-4.3,5.8-8.5,5.8
		c-2.1,0-5.2-2.5-5.2-5.5C0.5,11.2,6.4,3,11.6,3C13.3,3,15,4.3,15,5.8c0,1.3-2.4,5.7-3.6,5.7c-0.6,0-1.2-0.9-1.2-1.4
		c0-0.6,1.4-2.9,1.9-2.9s0.7,0.4,0.7,0.4s0.9-1.1,0.9-2c0-0.7-0.5-1.1-1-1.1C8,4.5,3,12.2,3,16.9c0,1.7,1.1,2.8,2.6,2.8
		C9.7,19.7,13,15.4,13.8,14.2z"/>
	<path class="st0" d="M29.9,14.2c0.3-0.5,0.4-0.6,0.5-0.6c0.2,0,0.5,0.5,0.5,0.8s-0.1,0.5-0.5,1.1c-0.8,1-3,4-5,4
		c-3.4,0-3.7-4.5-5.1-5.4c0,0-1.8,3.8-2.8,4.8c-0.9,1-2.2,1.7-3.2,1.7c-1.7,0-2.6-1.2-2.6-1.4s0.1-0.3,0.3-0.3
		c0.1,0,0.5,0.5,1.2,0.5c2,0,3-2.4,4.8-5.6c1.8-3.3,4.2-8.2,4.2-8.9c0-0.5-0.3-0.7-0.6-0.7c-1.9,0-4.4,2.6-4.4,2.6s0.2,0.2,0.2,0.7
		S17,8.1,16.2,9c-0.9,1-1,1.4-1.4,1.4s-1.2-0.6-1.2-1.2c0-1.5,4.9-6.2,7.5-6.2c1.8,0,2.6,1.8,2.6,2.8c0,2.4-2.9,7-2.9,7
		c3.9-1.5,7.6-10.1,9.3-10.1c0.6,0,1.9,0.5,1.9,1C32,3.8,31.9,4,31.6,4c-2.2,0-5,8.3-10,9.4c1.8,0.8,2.5,4.1,4.4,4.1
		C27.5,17.6,29.1,15.4,29.9,14.2z"/>
</g>
</svg>
