<?xml version="1.0" encoding="utf-8"?>
<!-- Generator: Adobe Illustrator 28.2.0, SVG Export Plug-In . SVG Version: 6.00 Build 0)  -->
<svg version="1.1" id="Ebene_1" xmlns="http://www.w3.org/2000/svg" xmlns:xlink="http://www.w3.org/1999/xlink" x="0px" y="0px"
	 viewBox="0 0 33 24" style="enable-background:new 0 0 33 24;" xml:space="preserve">
<style type="text/css">
	.st0{fill:none;stroke:#000000;stroke-width:3;stroke-linecap:round;stroke-miterlimit:10;}
	.st1{fill:#F5DEB3;stroke:#F5DEB3;stroke-width:0.5;stroke-miterlimit:10;}
</style>
<path class="st0" d="M15.3,13.4"/>
<path class="st0" d="M15.3,10.2"/>
<g>
	<g>
		<g>
			<path class="st1" d="M16,23.8h-3.9c-0.1,0-3,0-6-1.5c-2.7-1.3-6-4.2-6-10.3c0-3.5,1-6.3,3.1-8.3c3.5-3.4,8.6-3.4,8.9-3.4H16
				c0.3,0,0.5,0.2,0.5,0.5V6c0,0.1-0.1,0.2-0.2,0.2S16.1,6.1,16.1,6V0.7c0,0,0,0,0,0h-3.9c-0.1,0-5.2,0-8.5,3.3c-2,1.9-3,4.6-3,7.9
				c0,4.7,1.9,8,5.7,9.9c2.8,1.4,5.7,1.4,5.8,1.4H16c0.1,0,0.1,0,0.1,0V18c0-0.1,0.1-0.2,0.2-0.2c0.1,0,0.2,0.1,0.2,0.2v5.3
				C16.5,23.6,16.3,23.8,16,23.8z"/>
		</g>
		<g>
			<path class="st1" d="M20.9,23.8c-0.1,0-0.2-0.1-0.2-0.2v-23c0-0.1,0.1-0.2,0.2-0.2c0.1,0,0.2,0.1,0.2,0.2v23
				C21.1,23.7,21,23.8,20.9,23.8z"/>
		</g>
		<g>
			<path class="st1" d="M11.6,23.6c-0.1,0-0.2-0.1-0.2-0.2V9.1c0-0.1,0.1-0.2,0.2-0.2c0.1,0,0.2,0.1,0.2,0.2v14.3
				C11.9,23.5,11.8,23.6,11.6,23.6z"/>
		</g>
		<g>
			<path class="st1" d="M20.9,12.1c-0.1,0-0.2-0.1-0.2-0.2c0-0.1,0.1-0.2,0.2-0.2c9.2,0,11.3-11.1,11.3-11.2c0-0.1,0.1-0.2,0.3-0.2
				c0.1,0,0.2,0.1,0.2,0.3C32.7,0.7,30.4,12.1,20.9,12.1z"/>
		</g>
		<g>
			<path class="st1" d="M32.4,23.8C32.4,23.8,32.4,23.8,32.4,23.8c-0.1,0-0.2-0.1-0.2-0.2c0-0.1,0.1-5.1-3.3-8.5c-1.9-2-4.7-3-8.1-3
				c-0.1,0-0.2-0.1-0.2-0.2c0-0.1,0.1-0.2,0.2-0.2c3.5,0,6.4,1,8.4,3.1c3.5,3.5,3.4,8.6,3.4,8.8C32.7,23.7,32.6,23.8,32.4,23.8z"/>
		</g>
		<g>
			<path class="st1" d="M16.3,15.7C16.3,15.7,16.3,15.7,16.3,15.7c-0.2,0-0.3-0.1-0.4-0.2l-4.3-6.3c-0.1-0.1,0-0.2,0.1-0.3
				c0.1-0.1,0.2,0,0.3,0.1l4.3,6.3c0,0,0,0,0.1,0c0,0,0.1,0,0.1,0l4.3-6.2C20.7,9,20.9,8.9,21,9c0.1,0.1,0.1,0.2,0.1,0.3l-4.3,6.2
				C16.6,15.6,16.4,15.7,16.3,15.7z"/>
		</g>
	</g>
</g>
</svg>
